<svg width="1000" height="500" xmlns="http://www.w3.org/2000/svg">

 <g>
  <title>Layer 1</title>
  <path d="m172.74548,292.063" stroke-miterlimit="10" stroke-width="2" stroke="#000000" fill="none"/>
  <rect id="svg_133" stroke="#000000" height="293" width="627.00003" stroke-miterlimit="10" stroke-width="2" fill="#65A8A1" y="146.5" x="181.74548"/>
  <path d="m181.74548,146.5l627,0l0,293l-627,0l0,-293z" opacity="undefined" stroke-width="2" stroke="#000000" fill="#65A8A1"/>
  <g id="svg_62" stroke="null">
   <rect id="svg_2" stroke="#000000" height="165" width="190" stroke-miterlimit="10" stroke-width="2" fill="#FFFFFF" y="161.5" x="199.94667"/>
   <g id="svg_24" stroke="null">
    <path id="svg_3" stroke="null" d="m223.02567,184.652l1.962,0.622c-0.301,1.094 -0.801,1.906 -1.5,2.437s-1.587,0.796 -2.663,0.796c-1.331,0 -2.424,-0.455 -3.281,-1.364s-1.285,-2.152 -1.285,-3.729c0,-1.668 0.431,-2.963 1.292,-3.886s1.994,-1.384 3.397,-1.384c1.226,0 2.222,0.362 2.987,1.087c0.456,0.428 0.797,1.043 1.025,1.846l-2.003,0.479c-0.119,-0.52 -0.366,-0.93 -0.742,-1.23s-0.833,-0.451 -1.371,-0.451c-0.743,0 -1.346,0.267 -1.808,0.8s-0.694,1.397 -0.694,2.591c0,1.267 0.228,2.169 0.684,2.707s1.048,0.807 1.777,0.807c0.538,0 1,-0.171 1.388,-0.513s0.667,-0.881 0.835,-1.615z"/>
    <path id="svg_4" stroke="null" d="m230.91467,186.026l1.914,0.321c-0.246,0.702 -0.635,1.236 -1.166,1.603s-1.195,0.55 -1.993,0.55c-1.262,0 -2.197,-0.413 -2.803,-1.237c-0.479,-0.661 -0.718,-1.495 -0.718,-2.502c0,-1.203 0.314,-2.146 0.943,-2.827s1.424,-1.022 2.386,-1.022c1.08,0 1.932,0.356 2.557,1.07s0.923,1.806 0.896,3.278l-4.813,0c0.014,0.57 0.168,1.013 0.465,1.33s0.666,0.475 1.107,0.475c0.301,0 0.554,-0.082 0.759,-0.246s0.361,-0.428 0.466,-0.793zm0.109,-1.942c-0.014,-0.556 -0.157,-0.979 -0.431,-1.268s-0.606,-0.434 -0.998,-0.434c-0.419,0 -0.766,0.153 -1.039,0.458s-0.408,0.72 -0.403,1.244l2.871,0z"/>
    <path id="svg_5" stroke="null" d="m241.09967,188.336l-1.921,0l0,-3.705c0,-0.784 -0.041,-1.291 -0.123,-1.521s-0.215,-0.409 -0.4,-0.537s-0.407,-0.191 -0.667,-0.191c-0.333,0 -0.631,0.091 -0.896,0.273s-0.445,0.424 -0.543,0.725s-0.147,0.857 -0.147,1.668l0,3.288l-1.921,0l0,-7.26l1.784,0l0,1.066c0.633,-0.82 1.431,-1.23 2.393,-1.23c0.424,0 0.811,0.076 1.162,0.229s0.616,0.348 0.796,0.584s0.305,0.506 0.376,0.807s0.106,0.731 0.106,1.292l0,4.512l0.001,0z"/>
    <path id="svg_6" stroke="null" d="m246.37767,181.077l0,1.531l-1.313,0l0,2.926c0,0.592 0.013,0.938 0.038,1.036s0.082,0.179 0.171,0.243s0.197,0.096 0.325,0.096c0.178,0 0.435,-0.062 0.772,-0.185l0.164,1.49c-0.447,0.191 -0.953,0.287 -1.518,0.287c-0.346,0 -0.659,-0.058 -0.937,-0.174s-0.482,-0.267 -0.612,-0.451s-0.22,-0.434 -0.27,-0.749c-0.041,-0.223 -0.062,-0.674 -0.062,-1.354l0,-3.165l-0.882,0l0,-1.531l0.882,0l0,-1.442l1.928,-1.121l0,2.563l1.314,0z"/>
    <path id="svg_7" stroke="null" d="m249.54967,188.336l-1.921,0l0,-7.26l1.784,0l0,1.032c0.305,-0.488 0.58,-0.809 0.824,-0.964s0.521,-0.232 0.831,-0.232c0.438,0 0.859,0.121 1.265,0.362l-0.595,1.675c-0.324,-0.209 -0.625,-0.314 -0.902,-0.314c-0.269,0 -0.497,0.074 -0.684,0.222s-0.334,0.416 -0.441,0.803s-0.161,1.199 -0.161,2.434l0,2.242z"/>
    <path id="svg_8" stroke="null" d="m254.59367,183.292l-1.743,-0.314c0.196,-0.702 0.533,-1.221 1.012,-1.559s1.189,-0.506 2.133,-0.506c0.857,0 1.495,0.102 1.914,0.304s0.714,0.46 0.885,0.772s0.256,0.885 0.256,1.719l-0.021,2.242c0,0.638 0.031,1.108 0.092,1.412s0.177,0.628 0.345,0.974l-1.9,0c-0.05,-0.127 -0.112,-0.317 -0.185,-0.567c-0.032,-0.114 -0.055,-0.189 -0.068,-0.226c-0.328,0.319 -0.679,0.558 -1.053,0.718s-0.772,0.239 -1.196,0.239c-0.748,0 -1.336,-0.203 -1.767,-0.608s-0.646,-0.918 -0.646,-1.538c0,-0.41 0.098,-0.776 0.294,-1.097s0.471,-0.567 0.824,-0.738s0.862,-0.32 1.528,-0.448c0.898,-0.168 1.52,-0.326 1.866,-0.472l0,-0.191c0,-0.369 -0.091,-0.632 -0.273,-0.79s-0.526,-0.236 -1.032,-0.236c-0.342,0 -0.608,0.067 -0.8,0.202s-0.346,0.37 -0.465,0.708zm2.571,1.558c-0.246,0.082 -0.636,0.18 -1.169,0.294s-0.882,0.226 -1.046,0.335c-0.25,0.178 -0.376,0.403 -0.376,0.677c0,0.269 0.1,0.501 0.301,0.697s0.456,0.294 0.766,0.294c0.346,0 0.677,-0.114 0.991,-0.342c0.232,-0.173 0.385,-0.385 0.458,-0.636c0.05,-0.164 0.075,-0.476 0.075,-0.937l0,-0.382z"/>
    <path id="svg_9" stroke="null" d="m260.94467,188.336l0,-10.021l1.921,0l0,10.021l-1.921,0z"/>
    <path id="svg_10" stroke="null" d="m268.73767,188.336l0,-10.021l3.247,0c1.23,0 2.033,0.05 2.406,0.15c0.574,0.15 1.055,0.478 1.442,0.981s0.581,1.154 0.581,1.952c0,0.615 -0.112,1.132 -0.335,1.552s-0.507,0.749 -0.851,0.988s-0.694,0.397 -1.049,0.475c-0.483,0.096 -1.183,0.144 -2.099,0.144l-1.319,0l0,3.78l-2.023,0l0,-0.001zm2.023,-8.326l0,2.844l1.107,0c0.797,0 1.331,-0.052 1.6,-0.157s0.479,-0.269 0.632,-0.492s0.229,-0.483 0.229,-0.779c0,-0.365 -0.107,-0.666 -0.321,-0.902s-0.485,-0.385 -0.813,-0.444c-0.242,-0.045 -0.727,-0.068 -1.456,-0.068l-0.978,0l0,-0.002z"/>
    <path id="svg_11" stroke="null" d="m279.90067,188.336l-1.921,0l0,-7.26l1.784,0l0,1.032c0.305,-0.488 0.58,-0.809 0.824,-0.964s0.521,-0.232 0.831,-0.232c0.438,0 0.859,0.121 1.265,0.362l-0.595,1.675c-0.324,-0.209 -0.625,-0.314 -0.902,-0.314c-0.269,0 -0.497,0.074 -0.684,0.222s-0.334,0.416 -0.441,0.803s-0.161,1.199 -0.161,2.434l0,2.242z"/>
    <path id="svg_12" stroke="null" d="m283.06567,184.604c0,-0.638 0.157,-1.255 0.472,-1.853s0.76,-1.053 1.336,-1.367s1.22,-0.472 1.931,-0.472c1.098,0 1.999,0.356 2.7,1.07s1.053,1.614 1.053,2.704c0,1.098 -0.354,2.009 -1.063,2.731s-1.601,1.083 -2.676,1.083c-0.666,0 -1.3,-0.15 -1.904,-0.451s-1.063,-0.742 -1.377,-1.323s-0.472,-1.288 -0.472,-2.122zm1.969,0.103c0,0.72 0.171,1.271 0.513,1.654s0.763,0.574 1.265,0.574s0.922,-0.191 1.261,-0.574s0.509,-0.939 0.509,-1.668c0,-0.711 -0.17,-1.258 -0.509,-1.641s-0.76,-0.574 -1.261,-0.574s-0.923,0.191 -1.265,0.574s-0.513,0.934 -0.513,1.655z"/>
    <path id="svg_13" stroke="null" d="m298.39167,183.223l-1.894,0.342c-0.063,-0.378 -0.208,-0.663 -0.435,-0.854c-0.225,-0.191 -0.518,-0.287 -0.878,-0.287c-0.479,0 -0.86,0.165 -1.146,0.496c-0.284,0.331 -0.427,0.883 -0.427,1.658c0,0.861 0.145,1.47 0.435,1.825c0.289,0.355 0.678,0.533 1.165,0.533c0.364,0 0.663,-0.104 0.896,-0.311s0.396,-0.564 0.492,-1.07l1.887,0.321c-0.195,0.866 -0.572,1.52 -1.128,1.962s-1.302,0.663 -2.235,0.663c-1.063,0 -1.908,-0.335 -2.54,-1.005s-0.947,-1.597 -0.947,-2.782c0,-1.199 0.317,-2.132 0.95,-2.799s1.49,-1.001 2.57,-1.001c0.884,0 1.587,0.19 2.108,0.571c0.525,0.379 0.899,0.959 1.127,1.738z"/>
    <path id="svg_14" stroke="null" d="m304.05167,186.026l1.914,0.321c-0.246,0.702 -0.635,1.236 -1.166,1.603c-0.53,0.367 -1.195,0.55 -1.992,0.55c-1.262,0 -2.197,-0.413 -2.803,-1.237c-0.479,-0.661 -0.718,-1.495 -0.718,-2.502c0,-1.203 0.314,-2.146 0.943,-2.827s1.425,-1.022 2.386,-1.022c1.08,0 1.932,0.356 2.557,1.07s0.923,1.806 0.896,3.278l-4.813,0c0.014,0.57 0.169,1.013 0.465,1.33s0.665,0.475 1.107,0.475c0.301,0 0.554,-0.082 0.759,-0.246s0.36,-0.428 0.465,-0.793zm0.11,-1.942c-0.014,-0.556 -0.157,-0.979 -0.431,-1.268s-0.606,-0.434 -0.998,-0.434c-0.419,0 -0.766,0.153 -1.039,0.458s-0.407,0.72 -0.403,1.244l2.871,0z"/>
    <path id="svg_15" stroke="null" d="m306.95767,186.265l1.928,-0.294c0.082,0.374 0.249,0.657 0.499,0.851s0.602,0.291 1.053,0.291c0.496,0 0.871,-0.091 1.121,-0.273c0.168,-0.127 0.253,-0.298 0.253,-0.513c0,-0.146 -0.046,-0.267 -0.137,-0.362c-0.096,-0.091 -0.31,-0.175 -0.643,-0.253c-1.55,-0.342 -2.532,-0.654 -2.946,-0.937c-0.574,-0.392 -0.861,-0.937 -0.861,-1.634c0,-0.629 0.248,-1.158 0.745,-1.586s1.267,-0.643 2.311,-0.643c0.993,0 1.731,0.162 2.215,0.485s0.815,0.802 0.998,1.436l-1.812,0.335c-0.078,-0.283 -0.225,-0.499 -0.441,-0.649c-0.216,-0.15 -0.525,-0.226 -0.926,-0.226c-0.506,0 -0.868,0.071 -1.087,0.212c-0.146,0.1 -0.219,0.23 -0.219,0.39c0,0.137 0.063,0.253 0.191,0.349c0.173,0.127 0.771,0.308 1.794,0.54c1.023,0.232 1.738,0.517 2.144,0.854c0.401,0.342 0.602,0.818 0.602,1.429c0,0.666 -0.278,1.237 -0.834,1.716s-1.379,0.717 -2.469,0.717c-0.988,0 -1.771,-0.201 -2.348,-0.602c-0.577,-0.4 -0.954,-0.945 -1.131,-1.633z"/>
    <path id="svg_16" stroke="null" d="m314.74367,186.265l1.928,-0.294c0.082,0.374 0.248,0.657 0.499,0.851s0.602,0.291 1.053,0.291c0.497,0 0.87,-0.091 1.121,-0.273c0.169,-0.127 0.253,-0.298 0.253,-0.513c0,-0.146 -0.045,-0.267 -0.137,-0.362c-0.096,-0.091 -0.311,-0.175 -0.643,-0.253c-1.549,-0.342 -2.531,-0.654 -2.946,-0.937c-0.574,-0.392 -0.861,-0.937 -0.861,-1.634c0,-0.629 0.249,-1.158 0.745,-1.586s1.268,-0.643 2.311,-0.643c0.994,0 1.732,0.162 2.215,0.485s0.816,0.802 0.998,1.436l-1.812,0.335c-0.077,-0.283 -0.225,-0.499 -0.44,-0.649c-0.217,-0.15 -0.525,-0.226 -0.927,-0.226c-0.506,0 -0.868,0.071 -1.087,0.212c-0.146,0.1 -0.219,0.23 -0.219,0.39c0,0.137 0.064,0.253 0.191,0.349c0.174,0.127 0.771,0.308 1.795,0.54c1.022,0.232 1.736,0.517 2.143,0.854c0.4,0.342 0.602,0.818 0.602,1.429c0,0.666 -0.277,1.237 -0.834,1.716s-1.379,0.718 -2.468,0.718c-0.989,0 -1.771,-0.201 -2.349,-0.602c-0.576,-0.401 -0.953,-0.946 -1.131,-1.634z"/>
    <path id="svg_17" stroke="null" d="m323.20667,180.092l0,-1.777l1.921,0l0,1.777l-1.921,0zm0,8.244l0,-7.26l1.921,0l0,7.26l-1.921,0z"/>
    <path id="svg_18" stroke="null" d="m333.69967,188.336l-1.921,0l0,-3.705c0,-0.784 -0.041,-1.291 -0.123,-1.521s-0.215,-0.409 -0.4,-0.537c-0.184,-0.127 -0.406,-0.191 -0.666,-0.191c-0.332,0 -0.631,0.091 -0.896,0.273s-0.445,0.424 -0.544,0.725c-0.098,0.301 -0.146,0.857 -0.146,1.668l0,3.288l-1.921,0l0,-7.26l1.784,0l0,1.066c0.633,-0.82 1.432,-1.23 2.393,-1.23c0.424,0 0.811,0.076 1.162,0.229s0.616,0.348 0.797,0.584c0.18,0.237 0.305,0.506 0.375,0.807c0.071,0.301 0.106,0.731 0.106,1.292l0,4.512z"/>
    <path id="svg_19" stroke="null" d="m335.46967,188.815l2.194,0.267c0.036,0.255 0.12,0.431 0.253,0.526c0.182,0.137 0.469,0.205 0.861,0.205c0.502,0 0.877,-0.075 1.128,-0.226c0.169,-0.1 0.296,-0.262 0.383,-0.485c0.06,-0.16 0.089,-0.454 0.089,-0.882l0,-1.06c-0.574,0.784 -1.299,1.176 -2.174,1.176c-0.975,0 -1.748,-0.413 -2.317,-1.237c-0.446,-0.652 -0.67,-1.463 -0.67,-2.434c0,-1.217 0.293,-2.146 0.878,-2.789c0.586,-0.643 1.314,-0.964 2.185,-0.964c0.897,0 1.638,0.394 2.222,1.183l0,-1.019l1.798,0l0,6.515c0,0.857 -0.071,1.497 -0.212,1.921s-0.34,0.756 -0.595,0.998s-0.596,0.431 -1.022,0.567c-0.426,0.137 -0.965,0.205 -1.616,0.205c-1.23,0 -2.103,-0.211 -2.618,-0.632s-0.772,-0.956 -0.772,-1.603c-0.001,-0.064 0.002,-0.141 0.005,-0.232zm1.716,-4.259c0,0.77 0.149,1.334 0.448,1.692c0.298,0.358 0.666,0.537 1.104,0.537c0.469,0 0.865,-0.184 1.189,-0.55s0.485,-0.91 0.485,-1.63c0,-0.752 -0.155,-1.31 -0.465,-1.675s-0.702,-0.547 -1.176,-0.547c-0.46,0 -0.84,0.179 -1.138,0.537c-0.297,0.357 -0.447,0.902 -0.447,1.636z"/>
    <path id="svg_20" stroke="null" d="m348.08967,178.315l2.023,0l0,5.428c0,0.861 0.025,1.419 0.075,1.675c0.087,0.41 0.293,0.739 0.618,0.988c0.326,0.249 0.771,0.373 1.337,0.373c0.574,0 1.007,-0.117 1.299,-0.352s0.468,-0.523 0.526,-0.865s0.089,-0.909 0.089,-1.702l0,-5.544l2.023,0l0,5.264c0,1.203 -0.055,2.053 -0.164,2.55s-0.312,0.916 -0.604,1.258c-0.295,0.342 -0.688,0.614 -1.18,0.817s-1.135,0.304 -1.928,0.304c-0.957,0 -1.683,-0.11 -2.178,-0.332c-0.494,-0.221 -0.885,-0.508 -1.172,-0.861s-0.477,-0.724 -0.567,-1.111c-0.132,-0.574 -0.198,-1.422 -0.198,-2.543l0,-5.347l0.001,0z"/>
    <path id="svg_21" stroke="null" d="m364.80267,188.336l-1.921,0l0,-3.705c0,-0.784 -0.041,-1.291 -0.123,-1.521s-0.215,-0.409 -0.4,-0.537c-0.184,-0.127 -0.406,-0.191 -0.666,-0.191c-0.332,0 -0.631,0.091 -0.896,0.273s-0.445,0.424 -0.544,0.725c-0.098,0.301 -0.146,0.857 -0.146,1.668l0,3.288l-1.921,0l0,-7.26l1.784,0l0,1.066c0.633,-0.82 1.432,-1.23 2.393,-1.23c0.424,0 0.811,0.076 1.162,0.229s0.616,0.348 0.797,0.584c0.18,0.237 0.305,0.506 0.375,0.807c0.071,0.301 0.106,0.731 0.106,1.292l0,4.512z"/>
    <path id="svg_22" stroke="null" d="m366.75167,180.092l0,-1.777l1.921,0l0,1.777l-1.921,0zm0,8.244l0,-7.26l1.921,0l0,7.26l-1.921,0z"/>
    <path id="svg_23" stroke="null" d="m373.96967,181.077l0,1.531l-1.313,0l0,2.926c0,0.592 0.013,0.938 0.037,1.036c0.025,0.098 0.082,0.179 0.172,0.243c0.088,0.064 0.197,0.096 0.324,0.096c0.178,0 0.436,-0.062 0.772,-0.185l0.164,1.49c-0.446,0.191 -0.952,0.287 -1.518,0.287c-0.347,0 -0.659,-0.058 -0.937,-0.174s-0.482,-0.267 -0.611,-0.451c-0.131,-0.185 -0.221,-0.434 -0.271,-0.749c-0.041,-0.223 -0.062,-0.674 -0.062,-1.354l0,-3.165l-0.882,0l0,-1.531l0.882,0l0,-1.442l1.928,-1.121l0,2.563l1.315,0z"/>
   </g>
   <g id="svg_38" stroke="null">
    <rect id="svg_25" stroke="#000000" height="42" width="160" stroke-miterlimit="10" stroke-width="2" fill="#F99DCB" y="207.5" x="215.94667"/>
    <g id="svg_37" stroke="null">
     <path id="svg_26" stroke="null" d="m262.94267,228.652l1.962,0.622c-0.301,1.094 -0.801,1.906 -1.5,2.437s-1.587,0.796 -2.663,0.796c-1.331,0 -2.424,-0.455 -3.281,-1.364s-1.285,-2.152 -1.285,-3.729c0,-1.668 0.431,-2.963 1.292,-3.886s1.994,-1.384 3.397,-1.384c1.226,0 2.222,0.362 2.987,1.087c0.456,0.428 0.797,1.043 1.025,1.846l-2.003,0.479c-0.119,-0.52 -0.366,-0.93 -0.742,-1.23s-0.833,-0.451 -1.371,-0.451c-0.743,0 -1.346,0.267 -1.808,0.8s-0.694,1.397 -0.694,2.591c0,1.267 0.228,2.169 0.684,2.707s1.048,0.807 1.777,0.807c0.538,0 1,-0.171 1.388,-0.513s0.667,-0.881 0.835,-1.615z"/>
     <path id="svg_27" stroke="null" d="m266.18267,228.604c0,-0.638 0.157,-1.255 0.472,-1.853s0.76,-1.053 1.336,-1.367s1.22,-0.472 1.931,-0.472c1.098,0 1.999,0.356 2.7,1.07s1.053,1.614 1.053,2.704c0,1.098 -0.354,2.009 -1.063,2.731s-1.601,1.083 -2.676,1.083c-0.666,0 -1.3,-0.15 -1.904,-0.451s-1.063,-0.742 -1.377,-1.323s-0.472,-1.288 -0.472,-2.122zm1.969,0.103c0,0.72 0.171,1.271 0.513,1.654s0.763,0.574 1.265,0.574s0.922,-0.191 1.261,-0.574s0.509,-0.939 0.509,-1.668c0,-0.711 -0.17,-1.258 -0.509,-1.641s-0.76,-0.574 -1.261,-0.574s-0.923,0.191 -1.265,0.574s-0.513,0.934 -0.513,1.655z"/>
     <path id="svg_28" stroke="null" d="m281.78267,232.336l-1.921,0l0,-3.705c0,-0.784 -0.041,-1.291 -0.123,-1.521s-0.215,-0.409 -0.4,-0.537s-0.407,-0.191 -0.667,-0.191c-0.333,0 -0.631,0.091 -0.896,0.273s-0.445,0.424 -0.543,0.725s-0.147,0.857 -0.147,1.668l0,3.288l-1.921,0l0,-7.26l1.784,0l0,1.066c0.633,-0.82 1.431,-1.23 2.393,-1.23c0.424,0 0.811,0.076 1.162,0.229s0.616,0.348 0.796,0.584s0.305,0.506 0.376,0.807s0.106,0.731 0.106,1.292l0,4.512l0.001,0z"/>
     <path id="svg_29" stroke="null" d="m287.05967,225.077l0,1.531l-1.313,0l0,2.926c0,0.592 0.013,0.938 0.038,1.036s0.082,0.179 0.171,0.243s0.197,0.096 0.325,0.096c0.178,0 0.435,-0.062 0.772,-0.185l0.164,1.49c-0.447,0.191 -0.953,0.287 -1.518,0.287c-0.346,0 -0.659,-0.058 -0.937,-0.174s-0.482,-0.267 -0.612,-0.451s-0.22,-0.434 -0.27,-0.749c-0.041,-0.223 -0.062,-0.674 -0.062,-1.354l0,-3.165l-0.882,0l0,-1.531l0.882,0l0,-1.442l1.928,-1.121l0,2.563l1.314,0z"/>
     <path id="svg_30" stroke="null" d="m290.23167,232.336l-1.921,0l0,-7.26l1.784,0l0,1.032c0.305,-0.488 0.58,-0.809 0.824,-0.964s0.521,-0.232 0.831,-0.232c0.438,0 0.859,0.121 1.265,0.362l-0.595,1.675c-0.324,-0.209 -0.625,-0.314 -0.902,-0.314c-0.269,0 -0.497,0.074 -0.684,0.222s-0.334,0.416 -0.441,0.803s-0.161,1.199 -0.161,2.434l0,2.242z"/>
     <path id="svg_31" stroke="null" d="m293.39667,228.604c0,-0.638 0.157,-1.255 0.472,-1.853s0.76,-1.053 1.336,-1.367c0.577,-0.314 1.221,-0.472 1.932,-0.472c1.098,0 1.998,0.356 2.7,1.07s1.053,1.614 1.053,2.704c0,1.098 -0.354,2.009 -1.063,2.731c-0.708,0.722 -1.6,1.083 -2.676,1.083c-0.666,0 -1.3,-0.15 -1.904,-0.451c-0.604,-0.301 -1.063,-0.742 -1.377,-1.323s-0.473,-1.288 -0.473,-2.122zm1.969,0.103c0,0.72 0.171,1.271 0.513,1.654s0.764,0.574 1.265,0.574s0.922,-0.191 1.261,-0.574c0.34,-0.383 0.51,-0.939 0.51,-1.668c0,-0.711 -0.17,-1.258 -0.51,-1.641c-0.339,-0.383 -0.76,-0.574 -1.261,-0.574s-0.923,0.191 -1.265,0.574s-0.513,0.934 -0.513,1.655z"/>
     <path id="svg_32" stroke="null" d="m302.39267,232.336l0,-10.021l1.921,0l0,10.021l-1.921,0z"/>
     <path id="svg_33" stroke="null" d="m310.17267,222.315l2.023,0l0,5.428c0,0.861 0.024,1.419 0.075,1.675c0.086,0.41 0.293,0.739 0.619,0.988c0.325,0.249 0.771,0.373 1.336,0.373c0.574,0 1.008,-0.117 1.299,-0.352s0.467,-0.523 0.526,-0.865s0.089,-0.909 0.089,-1.702l0,-5.544l2.023,0l0,5.264c0,1.203 -0.055,2.053 -0.164,2.55s-0.311,0.916 -0.605,1.258c-0.293,0.342 -0.687,0.614 -1.179,0.817s-1.135,0.304 -1.928,0.304c-0.957,0 -1.683,-0.11 -2.177,-0.332c-0.495,-0.221 -0.886,-0.508 -1.173,-0.861s-0.476,-0.724 -0.567,-1.111c-0.133,-0.574 -0.198,-1.422 -0.198,-2.543l0,-5.347l0.001,0z"/>
     <path id="svg_34" stroke="null" d="m326.88567,232.336l-1.921,0l0,-3.705c0,-0.784 -0.041,-1.291 -0.123,-1.521s-0.216,-0.409 -0.399,-0.537c-0.186,-0.127 -0.407,-0.191 -0.667,-0.191c-0.333,0 -0.632,0.091 -0.896,0.273s-0.445,0.424 -0.543,0.725c-0.099,0.301 -0.147,0.857 -0.147,1.668l0,3.288l-1.921,0l0,-7.26l1.784,0l0,1.066c0.634,-0.82 1.431,-1.23 2.393,-1.23c0.424,0 0.812,0.076 1.162,0.229s0.616,0.348 0.796,0.584c0.181,0.237 0.306,0.506 0.377,0.807c0.07,0.301 0.105,0.731 0.105,1.292l0,4.512z"/>
     <path id="svg_35" stroke="null" d="m328.83467,224.092l0,-1.777l1.921,0l0,1.777l-1.921,0zm0,8.244l0,-7.26l1.921,0l0,7.26l-1.921,0z"/>
     <path id="svg_36" stroke="null" d="m336.05267,225.077l0,1.531l-1.313,0l0,2.926c0,0.592 0.013,0.938 0.038,1.036c0.024,0.098 0.082,0.179 0.17,0.243c0.09,0.064 0.197,0.096 0.325,0.096c0.178,0 0.435,-0.062 0.772,-0.185l0.164,1.49c-0.447,0.191 -0.953,0.287 -1.518,0.287c-0.346,0 -0.658,-0.058 -0.937,-0.174s-0.481,-0.267 -0.612,-0.451c-0.129,-0.185 -0.219,-0.434 -0.27,-0.749c-0.041,-0.223 -0.062,-0.674 -0.062,-1.354l0,-3.165l-0.882,0l0,-1.531l0.882,0l0,-1.442l1.928,-1.121l0,2.563l1.315,0z"/>
    </g>
   </g>
   <g id="svg_61" stroke="null">
    <rect id="svg_39" stroke="#000000" height="42" width="160" stroke-miterlimit="10" stroke-width="2" fill="#F99DCB" y="267.5" x="214.94667"/>
    <g id="svg_60" stroke="null">
     <path id="svg_40" stroke="null" d="m234.22267,292.336l-2.201,0l-0.875,-2.276l-4.006,0l-0.827,2.276l-2.146,0l3.903,-10.021l2.14,0l4.012,10.021zm-3.725,-3.964l-1.381,-3.719l-1.354,3.719l2.735,0z"/>
     <path id="svg_41" stroke="null" d="m237.12167,292.336l-1.921,0l0,-7.26l1.784,0l0,1.032c0.305,-0.488 0.58,-0.809 0.824,-0.964s0.521,-0.232 0.831,-0.232c0.438,0 0.859,0.121 1.265,0.362l-0.595,1.675c-0.324,-0.209 -0.625,-0.314 -0.902,-0.314c-0.269,0 -0.497,0.074 -0.684,0.222s-0.334,0.416 -0.441,0.803s-0.161,1.199 -0.161,2.434l0,2.242z"/>
     <path id="svg_42" stroke="null" d="m240.73067,284.092l0,-1.777l1.921,0l0,1.777l-1.921,0zm0,8.244l0,-7.26l1.921,0l0,7.26l-1.921,0z"/>
     <path id="svg_43" stroke="null" d="m247.94967,285.077l0,1.531l-1.313,0l0,2.926c0,0.592 0.013,0.938 0.038,1.036s0.082,0.179 0.171,0.243s0.197,0.096 0.325,0.096c0.178,0 0.435,-0.062 0.772,-0.185l0.164,1.49c-0.447,0.191 -0.953,0.287 -1.518,0.287c-0.346,0 -0.659,-0.058 -0.937,-0.174s-0.482,-0.267 -0.612,-0.451s-0.22,-0.434 -0.27,-0.749c-0.041,-0.223 -0.062,-0.674 -0.062,-1.354l0,-3.165l-0.882,0l0,-1.531l0.882,0l0,-1.442l1.928,-1.121l0,2.563l1.314,0z"/>
     <path id="svg_44" stroke="null" d="m251.19667,282.315l0,3.685c0.62,-0.725 1.36,-1.087 2.222,-1.087c0.442,0 0.841,0.082 1.196,0.246s0.623,0.374 0.803,0.629s0.303,0.538 0.369,0.848s0.099,0.791 0.099,1.442l0,4.259l-1.921,0l0,-3.835c0,-0.761 -0.037,-1.244 -0.109,-1.449s-0.202,-0.368 -0.386,-0.489s-0.416,-0.181 -0.694,-0.181c-0.319,0 -0.604,0.078 -0.854,0.232s-0.434,0.389 -0.55,0.701s-0.174,0.773 -0.174,1.384l0,3.637l-1.921,0l0,-10.021l1.92,0l0,-0.001z"/>
     <path id="svg_45" stroke="null" d="m257.69067,285.077l1.771,0l0,0.991c0.633,-0.77 1.388,-1.155 2.263,-1.155c0.465,0 0.868,0.096 1.21,0.287s0.622,0.481 0.841,0.868c0.319,-0.387 0.663,-0.677 1.032,-0.868s0.763,-0.287 1.183,-0.287c0.533,0 0.984,0.108 1.354,0.325s0.645,0.534 0.827,0.954c0.132,0.31 0.198,0.811 0.198,1.504l0,4.642l-1.921,0l0,-4.149c0,-0.72 -0.066,-1.185 -0.198,-1.395c-0.178,-0.273 -0.451,-0.41 -0.82,-0.41c-0.269,0 -0.522,0.082 -0.759,0.246s-0.408,0.404 -0.513,0.721s-0.157,0.817 -0.157,1.5l0,3.486l-1.921,0l0,-3.979c0,-0.707 -0.034,-1.162 -0.103,-1.367s-0.174,-0.358 -0.318,-0.458s-0.338,-0.15 -0.584,-0.15c-0.296,0 -0.563,0.08 -0.8,0.239s-0.407,0.39 -0.509,0.69s-0.154,0.8 -0.154,1.497l0,3.527l-1.921,0l0,-7.259l-0.001,0z"/>
     <path id="svg_46" stroke="null" d="m274.48667,290.026l1.914,0.321c-0.246,0.702 -0.635,1.236 -1.166,1.603s-1.195,0.55 -1.993,0.55c-1.262,0 -2.197,-0.413 -2.803,-1.237c-0.479,-0.661 -0.718,-1.495 -0.718,-2.502c0,-1.203 0.314,-2.146 0.943,-2.827s1.424,-1.022 2.386,-1.022c1.08,0 1.932,0.356 2.557,1.07s0.923,1.806 0.896,3.278l-4.813,0c0.014,0.57 0.168,1.013 0.465,1.33s0.666,0.475 1.107,0.475c0.301,0 0.554,-0.082 0.759,-0.246s0.361,-0.428 0.466,-0.793zm0.109,-1.942c-0.014,-0.556 -0.157,-0.979 -0.431,-1.268s-0.606,-0.434 -0.998,-0.434c-0.419,0 -0.766,0.153 -1.039,0.458s-0.408,0.72 -0.403,1.244l2.871,0z"/>
     <path id="svg_47" stroke="null" d="m281.39767,285.077l0,1.531l-1.313,0l0,2.926c0,0.592 0.013,0.938 0.038,1.036s0.082,0.179 0.171,0.243s0.197,0.096 0.325,0.096c0.178,0 0.435,-0.062 0.772,-0.185l0.164,1.49c-0.447,0.191 -0.953,0.287 -1.518,0.287c-0.346,0 -0.659,-0.058 -0.937,-0.174s-0.482,-0.267 -0.612,-0.451s-0.22,-0.434 -0.27,-0.749c-0.041,-0.223 -0.062,-0.674 -0.062,-1.354l0,-3.165l-0.882,0l0,-1.531l0.882,0l0,-1.442l1.928,-1.121l0,2.563l1.314,0z"/>
     <path id="svg_48" stroke="null" d="m282.73067,284.092l0,-1.777l1.921,0l0,1.777l-1.921,0zm0,8.244l0,-7.26l1.921,0l0,7.26l-1.921,0z"/>
     <path id="svg_49" stroke="null" d="m292.95067,287.223l-1.894,0.342c-0.064,-0.378 -0.208,-0.663 -0.434,-0.854s-0.519,-0.287 -0.878,-0.287c-0.479,0 -0.86,0.165 -1.145,0.496s-0.427,0.883 -0.427,1.658c0,0.861 0.145,1.47 0.434,1.825s0.678,0.533 1.166,0.533c0.365,0 0.663,-0.104 0.896,-0.311s0.396,-0.564 0.492,-1.07l1.887,0.321c-0.196,0.866 -0.572,1.52 -1.128,1.962s-1.301,0.663 -2.235,0.663c-1.062,0 -1.908,-0.335 -2.54,-1.005s-0.947,-1.597 -0.947,-2.782c0,-1.199 0.317,-2.132 0.95,-2.799s1.49,-1.001 2.57,-1.001c0.884,0 1.587,0.19 2.109,0.571s0.896,0.959 1.124,1.738z"/>
     <path id="svg_50" stroke="null" d="m293.38167,292.507l2.481,-10.363l1.442,0l-2.509,10.363l-1.414,0z"/>
     <path id="svg_51" stroke="null" d="m298.36467,292.336l0,-9.939l2.023,0l0,8.251l5.031,0l0,1.688l-7.054,0z"/>
     <path id="svg_52" stroke="null" d="m306.40367,288.604c0,-0.638 0.157,-1.255 0.472,-1.853s0.76,-1.053 1.337,-1.367c0.576,-0.314 1.22,-0.472 1.931,-0.472c1.099,0 1.999,0.356 2.7,1.07s1.053,1.614 1.053,2.704c0,1.098 -0.354,2.009 -1.063,2.731c-0.709,0.722 -1.602,1.083 -2.677,1.083c-0.665,0 -1.3,-0.15 -1.903,-0.451c-0.604,-0.301 -1.063,-0.742 -1.378,-1.323s-0.472,-1.288 -0.472,-2.122zm1.969,0.103c0,0.72 0.171,1.271 0.513,1.654s0.763,0.574 1.265,0.574s0.922,-0.191 1.262,-0.574c0.339,-0.383 0.509,-0.939 0.509,-1.668c0,-0.711 -0.17,-1.258 -0.509,-1.641c-0.34,-0.383 -0.76,-0.574 -1.262,-0.574s-0.923,0.191 -1.265,0.574s-0.513,0.934 -0.513,1.655z"/>
     <path id="svg_53" stroke="null" d="m315.22167,292.815l2.194,0.267c0.036,0.255 0.12,0.431 0.253,0.526c0.182,0.137 0.469,0.205 0.861,0.205c0.502,0 0.877,-0.075 1.128,-0.226c0.169,-0.1 0.296,-0.262 0.383,-0.485c0.06,-0.16 0.089,-0.454 0.089,-0.882l0,-1.06c-0.574,0.784 -1.299,1.176 -2.174,1.176c-0.975,0 -1.748,-0.413 -2.317,-1.237c-0.446,-0.652 -0.67,-1.463 -0.67,-2.434c0,-1.217 0.293,-2.146 0.878,-2.789c0.586,-0.643 1.314,-0.964 2.185,-0.964c0.897,0 1.638,0.394 2.222,1.183l0,-1.019l1.798,0l0,6.515c0,0.857 -0.071,1.497 -0.212,1.921s-0.34,0.756 -0.595,0.998s-0.596,0.431 -1.022,0.567c-0.426,0.137 -0.965,0.205 -1.616,0.205c-1.23,0 -2.103,-0.211 -2.618,-0.632s-0.772,-0.956 -0.772,-1.603c-0.001,-0.064 0.001,-0.141 0.005,-0.232zm1.716,-4.259c0,0.77 0.149,1.334 0.448,1.692c0.298,0.358 0.666,0.537 1.104,0.537c0.469,0 0.865,-0.184 1.189,-0.55s0.485,-0.91 0.485,-1.63c0,-0.752 -0.155,-1.31 -0.465,-1.675s-0.702,-0.547 -1.176,-0.547c-0.46,0 -0.84,0.179 -1.138,0.537c-0.297,0.357 -0.447,0.902 -0.447,1.636z"/>
     <path id="svg_54" stroke="null" d="m323.95167,284.092l0,-1.777l1.921,0l0,1.777l-1.921,0zm0,8.244l0,-7.26l1.921,0l0,7.26l-1.921,0z"/>
     <path id="svg_55" stroke="null" d="m334.17167,287.223l-1.894,0.342c-0.063,-0.378 -0.208,-0.663 -0.435,-0.854c-0.225,-0.191 -0.518,-0.287 -0.878,-0.287c-0.479,0 -0.86,0.165 -1.146,0.496c-0.284,0.331 -0.427,0.883 -0.427,1.658c0,0.861 0.145,1.47 0.435,1.825c0.289,0.355 0.678,0.533 1.165,0.533c0.364,0 0.663,-0.104 0.896,-0.311s0.396,-0.564 0.492,-1.07l1.887,0.321c-0.195,0.866 -0.572,1.52 -1.128,1.962s-1.302,0.663 -2.235,0.663c-1.063,0 -1.908,-0.335 -2.539,-1.005c-0.632,-0.67 -0.947,-1.597 -0.947,-2.782c0,-1.199 0.316,-2.132 0.95,-2.799s1.49,-1.001 2.57,-1.001c0.884,0 1.587,0.19 2.108,0.571c0.523,0.379 0.897,0.959 1.126,1.738z"/>
     <path id="svg_56" stroke="null" d="m339.51667,282.315l2.023,0l0,5.428c0,0.861 0.025,1.419 0.075,1.675c0.087,0.41 0.293,0.739 0.618,0.988c0.326,0.249 0.771,0.373 1.337,0.373c0.574,0 1.007,-0.117 1.299,-0.352s0.468,-0.523 0.526,-0.865s0.089,-0.909 0.089,-1.702l0,-5.544l2.023,0l0,5.264c0,1.203 -0.055,2.053 -0.164,2.55s-0.312,0.916 -0.604,1.258c-0.295,0.342 -0.688,0.614 -1.18,0.817s-1.135,0.304 -1.928,0.304c-0.957,0 -1.683,-0.11 -2.178,-0.332c-0.494,-0.221 -0.885,-0.508 -1.172,-0.861s-0.477,-0.724 -0.567,-1.111c-0.132,-0.574 -0.198,-1.422 -0.198,-2.543l0,-5.347l0.001,0z"/>
     <path id="svg_57" stroke="null" d="m356.23067,292.336l-1.921,0l0,-3.705c0,-0.784 -0.041,-1.291 -0.123,-1.521s-0.215,-0.409 -0.4,-0.537c-0.184,-0.127 -0.406,-0.191 -0.666,-0.191c-0.332,0 -0.631,0.091 -0.896,0.273s-0.445,0.424 -0.544,0.725c-0.098,0.301 -0.146,0.857 -0.146,1.668l0,3.288l-1.921,0l0,-7.26l1.784,0l0,1.066c0.633,-0.82 1.432,-1.23 2.393,-1.23c0.424,0 0.811,0.076 1.162,0.229s0.616,0.348 0.797,0.584c0.18,0.237 0.305,0.506 0.375,0.807c0.071,0.301 0.106,0.731 0.106,1.292l0,4.512z"/>
     <path id="svg_58" stroke="null" d="m358.17867,284.092l0,-1.777l1.921,0l0,1.777l-1.921,0zm0,8.244l0,-7.26l1.921,0l0,7.26l-1.921,0z"/>
     <path id="svg_59" stroke="null" d="m365.39767,285.077l0,1.531l-1.313,0l0,2.926c0,0.592 0.013,0.938 0.037,1.036c0.025,0.098 0.082,0.179 0.172,0.243c0.088,0.064 0.197,0.096 0.324,0.096c0.178,0 0.436,-0.062 0.772,-0.185l0.164,1.49c-0.446,0.191 -0.952,0.287 -1.518,0.287c-0.347,0 -0.659,-0.058 -0.937,-0.174s-0.482,-0.267 -0.611,-0.451c-0.131,-0.185 -0.221,-0.434 -0.271,-0.749c-0.041,-0.223 -0.062,-0.674 -0.062,-1.354l0,-3.165l-0.882,0l0,-1.531l0.882,0l0,-1.442l1.928,-1.121l0,2.563l1.315,0z"/>
    </g>
   </g>
  </g>
  <g id="svg_123" stroke="null">
   <rect id="svg_63" stroke="#000000" height="165" width="190" stroke-miterlimit="10" stroke-width="2" fill="#FFFFFF" y="161.5" x="401.03621"/>
   <g id="svg_85" stroke="null">
    <path id="svg_64" stroke="null" d="m424.11521,184.652l1.962,0.622c-0.301,1.094 -0.801,1.906 -1.5,2.437s-1.587,0.796 -2.663,0.796c-1.331,0 -2.424,-0.455 -3.281,-1.364s-1.285,-2.152 -1.285,-3.729c0,-1.668 0.431,-2.963 1.292,-3.886s1.994,-1.384 3.397,-1.384c1.226,0 2.222,0.362 2.987,1.087c0.456,0.428 0.797,1.043 1.025,1.846l-2.003,0.479c-0.119,-0.52 -0.366,-0.93 -0.742,-1.23s-0.833,-0.451 -1.371,-0.451c-0.743,0 -1.346,0.267 -1.808,0.8s-0.694,1.397 -0.694,2.591c0,1.267 0.228,2.169 0.684,2.707s1.048,0.807 1.777,0.807c0.538,0 1,-0.171 1.388,-0.513s0.667,-0.881 0.835,-1.615z"/>
    <path id="svg_65" stroke="null" d="m432.00421,186.026l1.914,0.321c-0.246,0.702 -0.635,1.236 -1.166,1.603s-1.195,0.55 -1.993,0.55c-1.262,0 -2.197,-0.413 -2.803,-1.237c-0.479,-0.661 -0.718,-1.495 -0.718,-2.502c0,-1.203 0.314,-2.146 0.943,-2.827s1.424,-1.022 2.386,-1.022c1.08,0 1.932,0.356 2.557,1.07s0.923,1.806 0.896,3.278l-4.813,0c0.014,0.57 0.168,1.013 0.465,1.33s0.666,0.475 1.107,0.475c0.301,0 0.554,-0.082 0.759,-0.246s0.361,-0.428 0.466,-0.793zm0.109,-1.942c-0.014,-0.556 -0.157,-0.979 -0.431,-1.268s-0.606,-0.434 -0.998,-0.434c-0.419,0 -0.766,0.153 -1.039,0.458s-0.408,0.72 -0.403,1.244l2.871,0z"/>
    <path id="svg_66" stroke="null" d="m442.18921,188.336l-1.921,0l0,-3.705c0,-0.784 -0.041,-1.291 -0.123,-1.521s-0.215,-0.409 -0.4,-0.537s-0.407,-0.191 -0.667,-0.191c-0.333,0 -0.631,0.091 -0.896,0.273s-0.445,0.424 -0.543,0.725s-0.147,0.857 -0.147,1.668l0,3.288l-1.921,0l0,-7.26l1.784,0l0,1.066c0.633,-0.82 1.431,-1.23 2.393,-1.23c0.424,0 0.811,0.076 1.162,0.229s0.616,0.348 0.796,0.584s0.305,0.506 0.376,0.807s0.106,0.731 0.106,1.292l0,4.512l0.001,0z"/>
    <path id="svg_67" stroke="null" d="m447.46721,181.077l0,1.531l-1.313,0l0,2.926c0,0.592 0.013,0.938 0.038,1.036s0.082,0.179 0.171,0.243s0.197,0.096 0.325,0.096c0.178,0 0.435,-0.062 0.772,-0.185l0.164,1.49c-0.447,0.191 -0.953,0.287 -1.518,0.287c-0.346,0 -0.659,-0.058 -0.937,-0.174s-0.482,-0.267 -0.612,-0.451s-0.22,-0.434 -0.27,-0.749c-0.041,-0.223 -0.062,-0.674 -0.062,-1.354l0,-3.165l-0.882,0l0,-1.531l0.882,0l0,-1.442l1.928,-1.121l0,2.563l1.314,0z"/>
    <path id="svg_68" stroke="null" d="m450.63921,188.336l-1.921,0l0,-7.26l1.784,0l0,1.032c0.305,-0.488 0.58,-0.809 0.824,-0.964s0.521,-0.232 0.831,-0.232c0.438,0 0.859,0.121 1.265,0.362l-0.595,1.675c-0.324,-0.209 -0.625,-0.314 -0.902,-0.314c-0.269,0 -0.497,0.074 -0.684,0.222s-0.334,0.416 -0.441,0.803s-0.161,1.199 -0.161,2.434l0,2.242z"/>
    <path id="svg_69" stroke="null" d="m455.68321,183.292l-1.743,-0.314c0.196,-0.702 0.533,-1.221 1.012,-1.559s1.189,-0.506 2.133,-0.506c0.857,0 1.495,0.102 1.914,0.304s0.714,0.46 0.885,0.772s0.256,0.885 0.256,1.719l-0.021,2.242c0,0.638 0.031,1.108 0.092,1.412s0.177,0.628 0.345,0.974l-1.9,0c-0.05,-0.127 -0.112,-0.317 -0.185,-0.567c-0.032,-0.114 -0.055,-0.189 -0.068,-0.226c-0.328,0.319 -0.679,0.558 -1.053,0.718s-0.772,0.239 -1.196,0.239c-0.748,0 -1.336,-0.203 -1.767,-0.608s-0.646,-0.918 -0.646,-1.538c0,-0.41 0.098,-0.776 0.294,-1.097s0.471,-0.567 0.824,-0.738s0.862,-0.32 1.528,-0.448c0.898,-0.168 1.52,-0.326 1.866,-0.472l0,-0.191c0,-0.369 -0.091,-0.632 -0.273,-0.79s-0.526,-0.236 -1.032,-0.236c-0.342,0 -0.608,0.067 -0.8,0.202s-0.346,0.37 -0.465,0.708zm2.571,1.558c-0.246,0.082 -0.636,0.18 -1.169,0.294s-0.882,0.226 -1.046,0.335c-0.25,0.178 -0.376,0.403 -0.376,0.677c0,0.269 0.1,0.501 0.301,0.697s0.456,0.294 0.766,0.294c0.346,0 0.677,-0.114 0.991,-0.342c0.232,-0.173 0.385,-0.385 0.458,-0.636c0.05,-0.164 0.075,-0.476 0.075,-0.937l0,-0.382z"/>
    <path id="svg_70" stroke="null" d="m462.03421,188.336l0,-10.021l1.921,0l0,10.021l-1.921,0z"/>
    <path id="svg_71" stroke="null" d="m469.82721,188.336l0,-10.021l3.247,0c1.23,0 2.033,0.05 2.406,0.15c0.574,0.15 1.055,0.478 1.442,0.981s0.581,1.154 0.581,1.952c0,0.615 -0.112,1.132 -0.335,1.552s-0.507,0.749 -0.851,0.988s-0.694,0.397 -1.049,0.475c-0.483,0.096 -1.183,0.144 -2.099,0.144l-1.319,0l0,3.78l-2.023,0l0,-0.001zm2.023,-8.326l0,2.844l1.107,0c0.797,0 1.331,-0.052 1.6,-0.157s0.479,-0.269 0.632,-0.492s0.229,-0.483 0.229,-0.779c0,-0.365 -0.107,-0.666 -0.321,-0.902s-0.485,-0.385 -0.813,-0.444c-0.242,-0.045 -0.727,-0.068 -1.456,-0.068l-0.978,0l0,-0.002z"/>
    <path id="svg_72" stroke="null" d="m480.99021,188.336l-1.921,0l0,-7.26l1.784,0l0,1.032c0.305,-0.488 0.58,-0.809 0.824,-0.964s0.521,-0.232 0.831,-0.232c0.438,0 0.859,0.121 1.265,0.362l-0.595,1.675c-0.324,-0.209 -0.625,-0.314 -0.902,-0.314c-0.269,0 -0.497,0.074 -0.684,0.222s-0.334,0.416 -0.441,0.803s-0.161,1.199 -0.161,2.434l0,2.242z"/>
    <path id="svg_73" stroke="null" d="m484.15521,184.604c0,-0.638 0.157,-1.255 0.472,-1.853s0.76,-1.053 1.336,-1.367s1.22,-0.472 1.931,-0.472c1.098,0 1.999,0.356 2.7,1.07s1.053,1.614 1.053,2.704c0,1.098 -0.354,2.009 -1.063,2.731s-1.601,1.083 -2.676,1.083c-0.666,0 -1.3,-0.15 -1.904,-0.451s-1.063,-0.742 -1.377,-1.323s-0.472,-1.288 -0.472,-2.122zm1.969,0.103c0,0.72 0.171,1.271 0.513,1.654s0.763,0.574 1.265,0.574s0.922,-0.191 1.261,-0.574s0.509,-0.939 0.509,-1.668c0,-0.711 -0.17,-1.258 -0.509,-1.641s-0.76,-0.574 -1.261,-0.574s-0.923,0.191 -1.265,0.574s-0.513,0.934 -0.513,1.655z"/>
    <path id="svg_74" stroke="null" d="m499.48121,183.223l-1.894,0.342c-0.063,-0.378 -0.208,-0.663 -0.435,-0.854c-0.225,-0.191 -0.518,-0.287 -0.878,-0.287c-0.479,0 -0.86,0.165 -1.146,0.496c-0.284,0.331 -0.427,0.883 -0.427,1.658c0,0.861 0.145,1.47 0.435,1.825c0.289,0.355 0.678,0.533 1.165,0.533c0.364,0 0.663,-0.104 0.896,-0.311s0.396,-0.564 0.492,-1.07l1.887,0.321c-0.195,0.866 -0.572,1.52 -1.128,1.962s-1.302,0.663 -2.235,0.663c-1.063,0 -1.908,-0.335 -2.54,-1.005s-0.947,-1.597 -0.947,-2.782c0,-1.199 0.317,-2.132 0.95,-2.799s1.49,-1.001 2.57,-1.001c0.884,0 1.587,0.19 2.108,0.571c0.525,0.379 0.899,0.959 1.127,1.738z"/>
    <path id="svg_75" stroke="null" d="m505.14121,186.026l1.914,0.321c-0.246,0.702 -0.635,1.236 -1.166,1.603c-0.53,0.367 -1.195,0.55 -1.992,0.55c-1.262,0 -2.197,-0.413 -2.803,-1.237c-0.479,-0.661 -0.718,-1.495 -0.718,-2.502c0,-1.203 0.314,-2.146 0.943,-2.827s1.425,-1.022 2.386,-1.022c1.08,0 1.932,0.356 2.557,1.07s0.923,1.806 0.896,3.278l-4.813,0c0.014,0.57 0.169,1.013 0.465,1.33s0.665,0.475 1.107,0.475c0.301,0 0.554,-0.082 0.759,-0.246s0.36,-0.428 0.465,-0.793zm0.11,-1.942c-0.014,-0.556 -0.157,-0.979 -0.431,-1.268s-0.606,-0.434 -0.998,-0.434c-0.419,0 -0.766,0.153 -1.039,0.458s-0.407,0.72 -0.403,1.244l2.871,0z"/>
    <path id="svg_76" stroke="null" d="m508.04721,186.265l1.928,-0.294c0.082,0.374 0.249,0.657 0.499,0.851s0.602,0.291 1.053,0.291c0.496,0 0.871,-0.091 1.121,-0.273c0.168,-0.127 0.253,-0.298 0.253,-0.513c0,-0.146 -0.046,-0.267 -0.137,-0.362c-0.096,-0.091 -0.31,-0.175 -0.643,-0.253c-1.55,-0.342 -2.532,-0.654 -2.946,-0.937c-0.574,-0.392 -0.861,-0.937 -0.861,-1.634c0,-0.629 0.248,-1.158 0.745,-1.586s1.267,-0.643 2.311,-0.643c0.993,0 1.731,0.162 2.215,0.485s0.815,0.802 0.998,1.436l-1.812,0.335c-0.078,-0.283 -0.225,-0.499 -0.441,-0.649c-0.216,-0.15 -0.525,-0.226 -0.926,-0.226c-0.506,0 -0.868,0.071 -1.087,0.212c-0.146,0.1 -0.219,0.23 -0.219,0.39c0,0.137 0.063,0.253 0.191,0.349c0.173,0.127 0.771,0.308 1.794,0.54c1.023,0.232 1.738,0.517 2.144,0.854c0.401,0.342 0.602,0.818 0.602,1.429c0,0.666 -0.278,1.237 -0.834,1.716s-1.379,0.717 -2.469,0.717c-0.988,0 -1.771,-0.201 -2.348,-0.602c-0.577,-0.4 -0.954,-0.945 -1.131,-1.633z"/>
    <path id="svg_77" stroke="null" d="m515.83321,186.265l1.928,-0.294c0.082,0.374 0.248,0.657 0.499,0.851s0.602,0.291 1.053,0.291c0.497,0 0.87,-0.091 1.121,-0.273c0.169,-0.127 0.253,-0.298 0.253,-0.513c0,-0.146 -0.045,-0.267 -0.137,-0.362c-0.096,-0.091 -0.311,-0.175 -0.643,-0.253c-1.549,-0.342 -2.531,-0.654 -2.946,-0.937c-0.574,-0.392 -0.861,-0.937 -0.861,-1.634c0,-0.629 0.249,-1.158 0.745,-1.586s1.268,-0.643 2.311,-0.643c0.994,0 1.732,0.162 2.215,0.485s0.816,0.802 0.998,1.436l-1.812,0.335c-0.077,-0.283 -0.225,-0.499 -0.44,-0.649c-0.217,-0.15 -0.525,-0.226 -0.927,-0.226c-0.506,0 -0.868,0.071 -1.087,0.212c-0.146,0.1 -0.219,0.23 -0.219,0.39c0,0.137 0.064,0.253 0.191,0.349c0.174,0.127 0.771,0.308 1.795,0.54c1.022,0.232 1.736,0.517 2.143,0.854c0.4,0.342 0.602,0.818 0.602,1.429c0,0.666 -0.277,1.237 -0.834,1.716s-1.379,0.718 -2.468,0.718c-0.989,0 -1.771,-0.201 -2.349,-0.602c-0.576,-0.401 -0.953,-0.946 -1.131,-1.634z"/>
    <path id="svg_78" stroke="null" d="m524.29621,180.092l0,-1.777l1.921,0l0,1.777l-1.921,0zm0,8.244l0,-7.26l1.921,0l0,7.26l-1.921,0z"/>
    <path id="svg_79" stroke="null" d="m534.78921,188.336l-1.921,0l0,-3.705c0,-0.784 -0.041,-1.291 -0.123,-1.521s-0.215,-0.409 -0.4,-0.537c-0.184,-0.127 -0.406,-0.191 -0.666,-0.191c-0.332,0 -0.631,0.091 -0.896,0.273s-0.445,0.424 -0.544,0.725c-0.098,0.301 -0.146,0.857 -0.146,1.668l0,3.288l-1.921,0l0,-7.26l1.784,0l0,1.066c0.633,-0.82 1.432,-1.23 2.393,-1.23c0.424,0 0.811,0.076 1.162,0.229s0.616,0.348 0.797,0.584c0.18,0.237 0.305,0.506 0.375,0.807c0.071,0.301 0.106,0.731 0.106,1.292l0,4.512z"/>
    <path id="svg_80" stroke="null" d="m536.55921,188.815l2.194,0.267c0.036,0.255 0.12,0.431 0.253,0.526c0.182,0.137 0.469,0.205 0.861,0.205c0.502,0 0.877,-0.075 1.128,-0.226c0.169,-0.1 0.296,-0.262 0.383,-0.485c0.06,-0.16 0.089,-0.454 0.089,-0.882l0,-1.06c-0.574,0.784 -1.299,1.176 -2.174,1.176c-0.975,0 -1.748,-0.413 -2.317,-1.237c-0.446,-0.652 -0.67,-1.463 -0.67,-2.434c0,-1.217 0.293,-2.146 0.878,-2.789c0.586,-0.643 1.314,-0.964 2.185,-0.964c0.897,0 1.638,0.394 2.222,1.183l0,-1.019l1.798,0l0,6.515c0,0.857 -0.071,1.497 -0.212,1.921s-0.34,0.756 -0.595,0.998s-0.596,0.431 -1.022,0.567c-0.426,0.137 -0.965,0.205 -1.616,0.205c-1.23,0 -2.103,-0.211 -2.618,-0.632s-0.772,-0.956 -0.772,-1.603c-0.001,-0.064 0.002,-0.141 0.005,-0.232zm1.716,-4.259c0,0.77 0.149,1.334 0.448,1.692c0.298,0.358 0.666,0.537 1.104,0.537c0.469,0 0.865,-0.184 1.189,-0.55s0.485,-0.91 0.485,-1.63c0,-0.752 -0.155,-1.31 -0.465,-1.675s-0.702,-0.547 -1.176,-0.547c-0.46,0 -0.84,0.179 -1.138,0.537c-0.297,0.357 -0.447,0.902 -0.447,1.636z"/>
    <path id="svg_81" stroke="null" d="m549.17921,178.315l2.023,0l0,5.428c0,0.861 0.025,1.419 0.075,1.675c0.087,0.41 0.293,0.739 0.618,0.988c0.326,0.249 0.771,0.373 1.337,0.373c0.574,0 1.007,-0.117 1.299,-0.352s0.468,-0.523 0.526,-0.865s0.089,-0.909 0.089,-1.702l0,-5.544l2.023,0l0,5.264c0,1.203 -0.055,2.053 -0.164,2.55s-0.312,0.916 -0.604,1.258c-0.295,0.342 -0.688,0.614 -1.18,0.817s-1.135,0.304 -1.928,0.304c-0.957,0 -1.683,-0.11 -2.178,-0.332c-0.494,-0.221 -0.885,-0.508 -1.172,-0.861s-0.477,-0.724 -0.567,-1.111c-0.132,-0.574 -0.198,-1.422 -0.198,-2.543l0,-5.347l0.001,0z"/>
    <path id="svg_82" stroke="null" d="m565.89221,188.336l-1.921,0l0,-3.705c0,-0.784 -0.041,-1.291 -0.123,-1.521s-0.215,-0.409 -0.4,-0.537c-0.184,-0.127 -0.406,-0.191 -0.666,-0.191c-0.332,0 -0.631,0.091 -0.896,0.273s-0.445,0.424 -0.544,0.725c-0.098,0.301 -0.146,0.857 -0.146,1.668l0,3.288l-1.921,0l0,-7.26l1.784,0l0,1.066c0.633,-0.82 1.432,-1.23 2.393,-1.23c0.424,0 0.811,0.076 1.162,0.229s0.616,0.348 0.797,0.584c0.18,0.237 0.305,0.506 0.375,0.807c0.071,0.301 0.106,0.731 0.106,1.292l0,4.512z"/>
    <path id="svg_83" stroke="null" d="m567.84121,180.092l0,-1.777l1.921,0l0,1.777l-1.921,0zm0,8.244l0,-7.26l1.921,0l0,7.26l-1.921,0z"/>
    <path id="svg_84" stroke="null" d="m575.05921,181.077l0,1.531l-1.313,0l0,2.926c0,0.592 0.013,0.938 0.037,1.036c0.025,0.098 0.082,0.179 0.172,0.243c0.088,0.064 0.197,0.096 0.324,0.096c0.178,0 0.436,-0.062 0.772,-0.185l0.164,1.49c-0.446,0.191 -0.952,0.287 -1.518,0.287c-0.347,0 -0.659,-0.058 -0.937,-0.174s-0.482,-0.267 -0.611,-0.451c-0.131,-0.185 -0.221,-0.434 -0.271,-0.749c-0.041,-0.223 -0.062,-0.674 -0.062,-1.354l0,-3.165l-0.882,0l0,-1.531l0.882,0l0,-1.442l1.928,-1.121l0,2.563l1.315,0z"/>
   </g>
   <g id="svg_99" stroke="null">
    <rect id="svg_86" stroke="#000000" height="42" width="160" stroke-miterlimit="10" stroke-width="2" fill="#F99DCB" y="207.5" x="417.03621"/>
    <g id="svg_98" stroke="null">
     <path id="svg_87" stroke="null" d="m464.03221,228.652l1.962,0.622c-0.301,1.094 -0.801,1.906 -1.5,2.437s-1.587,0.796 -2.663,0.796c-1.331,0 -2.424,-0.455 -3.281,-1.364s-1.285,-2.152 -1.285,-3.729c0,-1.668 0.431,-2.963 1.292,-3.886s1.994,-1.384 3.397,-1.384c1.226,0 2.222,0.362 2.987,1.087c0.456,0.428 0.797,1.043 1.025,1.846l-2.003,0.479c-0.119,-0.52 -0.366,-0.93 -0.742,-1.23s-0.833,-0.451 -1.371,-0.451c-0.743,0 -1.346,0.267 -1.808,0.8s-0.694,1.397 -0.694,2.591c0,1.267 0.228,2.169 0.684,2.707s1.048,0.807 1.777,0.807c0.538,0 1,-0.171 1.388,-0.513s0.667,-0.881 0.835,-1.615z"/>
     <path id="svg_88" stroke="null" d="m467.27221,228.604c0,-0.638 0.157,-1.255 0.472,-1.853s0.76,-1.053 1.336,-1.367s1.22,-0.472 1.931,-0.472c1.098,0 1.999,0.356 2.7,1.07s1.053,1.614 1.053,2.704c0,1.098 -0.354,2.009 -1.063,2.731s-1.601,1.083 -2.676,1.083c-0.666,0 -1.3,-0.15 -1.904,-0.451s-1.063,-0.742 -1.377,-1.323s-0.472,-1.288 -0.472,-2.122zm1.969,0.103c0,0.72 0.171,1.271 0.513,1.654s0.763,0.574 1.265,0.574s0.922,-0.191 1.261,-0.574s0.509,-0.939 0.509,-1.668c0,-0.711 -0.17,-1.258 -0.509,-1.641s-0.76,-0.574 -1.261,-0.574s-0.923,0.191 -1.265,0.574s-0.513,0.934 -0.513,1.655z"/>
     <path id="svg_89" stroke="null" d="m482.87221,232.336l-1.921,0l0,-3.705c0,-0.784 -0.041,-1.291 -0.123,-1.521s-0.215,-0.409 -0.4,-0.537s-0.407,-0.191 -0.667,-0.191c-0.333,0 -0.631,0.091 -0.896,0.273s-0.445,0.424 -0.543,0.725s-0.147,0.857 -0.147,1.668l0,3.288l-1.921,0l0,-7.26l1.784,0l0,1.066c0.633,-0.82 1.431,-1.23 2.393,-1.23c0.424,0 0.811,0.076 1.162,0.229s0.616,0.348 0.796,0.584s0.305,0.506 0.376,0.807s0.106,0.731 0.106,1.292l0,4.512l0.001,0z"/>
     <path id="svg_90" stroke="null" d="m488.14921,225.077l0,1.531l-1.313,0l0,2.926c0,0.592 0.013,0.938 0.038,1.036s0.082,0.179 0.171,0.243s0.197,0.096 0.325,0.096c0.178,0 0.435,-0.062 0.772,-0.185l0.164,1.49c-0.447,0.191 -0.953,0.287 -1.518,0.287c-0.346,0 -0.659,-0.058 -0.937,-0.174s-0.482,-0.267 -0.612,-0.451s-0.22,-0.434 -0.27,-0.749c-0.041,-0.223 -0.062,-0.674 -0.062,-1.354l0,-3.165l-0.882,0l0,-1.531l0.882,0l0,-1.442l1.928,-1.121l0,2.563l1.314,0z"/>
     <path id="svg_91" stroke="null" d="m491.32121,232.336l-1.921,0l0,-7.26l1.784,0l0,1.032c0.305,-0.488 0.58,-0.809 0.824,-0.964s0.521,-0.232 0.831,-0.232c0.438,0 0.859,0.121 1.265,0.362l-0.595,1.675c-0.324,-0.209 -0.625,-0.314 -0.902,-0.314c-0.269,0 -0.497,0.074 -0.684,0.222s-0.334,0.416 -0.441,0.803s-0.161,1.199 -0.161,2.434l0,2.242z"/>
     <path id="svg_92" stroke="null" d="m494.48621,228.604c0,-0.638 0.157,-1.255 0.472,-1.853s0.76,-1.053 1.336,-1.367c0.577,-0.314 1.221,-0.472 1.932,-0.472c1.098,0 1.998,0.356 2.7,1.07s1.053,1.614 1.053,2.704c0,1.098 -0.354,2.009 -1.063,2.731c-0.708,0.722 -1.6,1.083 -2.676,1.083c-0.666,0 -1.3,-0.15 -1.904,-0.451c-0.604,-0.301 -1.063,-0.742 -1.377,-1.323s-0.473,-1.288 -0.473,-2.122zm1.969,0.103c0,0.72 0.171,1.271 0.513,1.654s0.764,0.574 1.265,0.574s0.922,-0.191 1.261,-0.574c0.34,-0.383 0.51,-0.939 0.51,-1.668c0,-0.711 -0.17,-1.258 -0.51,-1.641c-0.339,-0.383 -0.76,-0.574 -1.261,-0.574s-0.923,0.191 -1.265,0.574s-0.513,0.934 -0.513,1.655z"/>
     <path id="svg_93" stroke="null" d="m503.48221,232.336l0,-10.021l1.921,0l0,10.021l-1.921,0z"/>
     <path id="svg_94" stroke="null" d="m511.26221,222.315l2.023,0l0,5.428c0,0.861 0.024,1.419 0.075,1.675c0.086,0.41 0.293,0.739 0.619,0.988c0.325,0.249 0.771,0.373 1.336,0.373c0.574,0 1.008,-0.117 1.299,-0.352s0.467,-0.523 0.526,-0.865s0.089,-0.909 0.089,-1.702l0,-5.544l2.023,0l0,5.264c0,1.203 -0.055,2.053 -0.164,2.55s-0.311,0.916 -0.605,1.258c-0.293,0.342 -0.687,0.614 -1.179,0.817s-1.135,0.304 -1.928,0.304c-0.957,0 -1.683,-0.11 -2.177,-0.332c-0.495,-0.221 -0.886,-0.508 -1.173,-0.861s-0.476,-0.724 -0.567,-1.111c-0.133,-0.574 -0.198,-1.422 -0.198,-2.543l0,-5.347l0.001,0z"/>
     <path id="svg_95" stroke="null" d="m527.97521,232.336l-1.921,0l0,-3.705c0,-0.784 -0.041,-1.291 -0.123,-1.521s-0.216,-0.409 -0.399,-0.537c-0.186,-0.127 -0.407,-0.191 -0.667,-0.191c-0.333,0 -0.632,0.091 -0.896,0.273s-0.445,0.424 -0.543,0.725c-0.099,0.301 -0.147,0.857 -0.147,1.668l0,3.288l-1.921,0l0,-7.26l1.784,0l0,1.066c0.634,-0.82 1.431,-1.23 2.393,-1.23c0.424,0 0.812,0.076 1.162,0.229s0.616,0.348 0.796,0.584c0.181,0.237 0.306,0.506 0.377,0.807c0.07,0.301 0.105,0.731 0.105,1.292l0,4.512z"/>
     <path id="svg_96" stroke="null" d="m529.92421,224.092l0,-1.777l1.921,0l0,1.777l-1.921,0zm0,8.244l0,-7.26l1.921,0l0,7.26l-1.921,0z"/>
     <path id="svg_97" stroke="null" d="m537.14221,225.077l0,1.531l-1.313,0l0,2.926c0,0.592 0.013,0.938 0.038,1.036c0.024,0.098 0.082,0.179 0.17,0.243c0.09,0.064 0.197,0.096 0.325,0.096c0.178,0 0.435,-0.062 0.772,-0.185l0.164,1.49c-0.447,0.191 -0.953,0.287 -1.518,0.287c-0.346,0 -0.658,-0.058 -0.937,-0.174s-0.481,-0.267 -0.612,-0.451c-0.129,-0.185 -0.219,-0.434 -0.27,-0.749c-0.041,-0.223 -0.062,-0.674 -0.062,-1.354l0,-3.165l-0.882,0l0,-1.531l0.882,0l0,-1.442l1.928,-1.121l0,2.563l1.315,0z"/>
    </g>
   </g>
   <g id="svg_122" stroke="null">
    <rect id="svg_100" stroke="#000000" height="42" width="160" stroke-miterlimit="10" stroke-width="2" fill="#F99DCB" y="267.5" x="416.03621"/>
    <g id="svg_121" stroke="null">
     <path id="svg_101" stroke="null" d="m435.31221,292.336l-2.201,0l-0.875,-2.276l-4.006,0l-0.827,2.276l-2.146,0l3.903,-10.021l2.14,0l4.012,10.021zm-3.725,-3.964l-1.381,-3.719l-1.354,3.719l2.735,0z"/>
     <path id="svg_102" stroke="null" d="m438.21121,292.336l-1.921,0l0,-7.26l1.784,0l0,1.032c0.305,-0.488 0.58,-0.809 0.824,-0.964s0.521,-0.232 0.831,-0.232c0.438,0 0.859,0.121 1.265,0.362l-0.595,1.675c-0.324,-0.209 -0.625,-0.314 -0.902,-0.314c-0.269,0 -0.497,0.074 -0.684,0.222s-0.334,0.416 -0.441,0.803s-0.161,1.199 -0.161,2.434l0,2.242z"/>
     <path id="svg_103" stroke="null" d="m441.82021,284.092l0,-1.777l1.921,0l0,1.777l-1.921,0zm0,8.244l0,-7.26l1.921,0l0,7.26l-1.921,0z"/>
     <path id="svg_104" stroke="null" d="m449.03921,285.077l0,1.531l-1.313,0l0,2.926c0,0.592 0.013,0.938 0.038,1.036s0.082,0.179 0.171,0.243s0.197,0.096 0.325,0.096c0.178,0 0.435,-0.062 0.772,-0.185l0.164,1.49c-0.447,0.191 -0.953,0.287 -1.518,0.287c-0.346,0 -0.659,-0.058 -0.937,-0.174s-0.482,-0.267 -0.612,-0.451s-0.22,-0.434 -0.27,-0.749c-0.041,-0.223 -0.062,-0.674 -0.062,-1.354l0,-3.165l-0.882,0l0,-1.531l0.882,0l0,-1.442l1.928,-1.121l0,2.563l1.314,0z"/>
     <path id="svg_105" stroke="null" d="m452.28621,282.315l0,3.685c0.62,-0.725 1.36,-1.087 2.222,-1.087c0.442,0 0.841,0.082 1.196,0.246s0.623,0.374 0.803,0.629s0.303,0.538 0.369,0.848s0.099,0.791 0.099,1.442l0,4.259l-1.921,0l0,-3.835c0,-0.761 -0.037,-1.244 -0.109,-1.449s-0.202,-0.368 -0.386,-0.489s-0.416,-0.181 -0.694,-0.181c-0.319,0 -0.604,0.078 -0.854,0.232s-0.434,0.389 -0.55,0.701s-0.174,0.773 -0.174,1.384l0,3.637l-1.921,0l0,-10.021l1.92,0l0,-0.001z"/>
     <path id="svg_106" stroke="null" d="m458.78021,285.077l1.771,0l0,0.991c0.633,-0.77 1.388,-1.155 2.263,-1.155c0.465,0 0.868,0.096 1.21,0.287s0.622,0.481 0.841,0.868c0.319,-0.387 0.663,-0.677 1.032,-0.868s0.763,-0.287 1.183,-0.287c0.533,0 0.984,0.108 1.354,0.325s0.645,0.534 0.827,0.954c0.132,0.31 0.198,0.811 0.198,1.504l0,4.642l-1.921,0l0,-4.149c0,-0.72 -0.066,-1.185 -0.198,-1.395c-0.178,-0.273 -0.451,-0.41 -0.82,-0.41c-0.269,0 -0.522,0.082 -0.759,0.246s-0.408,0.404 -0.513,0.721s-0.157,0.817 -0.157,1.5l0,3.486l-1.921,0l0,-3.979c0,-0.707 -0.034,-1.162 -0.103,-1.367s-0.174,-0.358 -0.318,-0.458s-0.338,-0.15 -0.584,-0.15c-0.296,0 -0.563,0.08 -0.8,0.239s-0.407,0.39 -0.509,0.69s-0.154,0.8 -0.154,1.497l0,3.527l-1.921,0l0,-7.259l-0.001,0z"/>
     <path id="svg_107" stroke="null" d="m475.57621,290.026l1.914,0.321c-0.246,0.702 -0.635,1.236 -1.166,1.603s-1.195,0.55 -1.993,0.55c-1.262,0 -2.197,-0.413 -2.803,-1.237c-0.479,-0.661 -0.718,-1.495 -0.718,-2.502c0,-1.203 0.314,-2.146 0.943,-2.827s1.424,-1.022 2.386,-1.022c1.08,0 1.932,0.356 2.557,1.07s0.923,1.806 0.896,3.278l-4.813,0c0.014,0.57 0.168,1.013 0.465,1.33s0.666,0.475 1.107,0.475c0.301,0 0.554,-0.082 0.759,-0.246s0.361,-0.428 0.466,-0.793zm0.109,-1.942c-0.014,-0.556 -0.157,-0.979 -0.431,-1.268s-0.606,-0.434 -0.998,-0.434c-0.419,0 -0.766,0.153 -1.039,0.458s-0.408,0.72 -0.403,1.244l2.871,0z"/>
     <path id="svg_108" stroke="null" d="m482.48721,285.077l0,1.531l-1.313,0l0,2.926c0,0.592 0.013,0.938 0.038,1.036s0.082,0.179 0.171,0.243s0.197,0.096 0.325,0.096c0.178,0 0.435,-0.062 0.772,-0.185l0.164,1.49c-0.447,0.191 -0.953,0.287 -1.518,0.287c-0.346,0 -0.659,-0.058 -0.937,-0.174s-0.482,-0.267 -0.612,-0.451s-0.22,-0.434 -0.27,-0.749c-0.041,-0.223 -0.062,-0.674 -0.062,-1.354l0,-3.165l-0.882,0l0,-1.531l0.882,0l0,-1.442l1.928,-1.121l0,2.563l1.314,0z"/>
     <path id="svg_109" stroke="null" d="m483.82021,284.092l0,-1.777l1.921,0l0,1.777l-1.921,0zm0,8.244l0,-7.26l1.921,0l0,7.26l-1.921,0z"/>
     <path id="svg_110" stroke="null" d="m494.04021,287.223l-1.894,0.342c-0.064,-0.378 -0.208,-0.663 -0.434,-0.854s-0.519,-0.287 -0.878,-0.287c-0.479,0 -0.86,0.165 -1.145,0.496s-0.427,0.883 -0.427,1.658c0,0.861 0.145,1.47 0.434,1.825s0.678,0.533 1.166,0.533c0.365,0 0.663,-0.104 0.896,-0.311s0.396,-0.564 0.492,-1.07l1.887,0.321c-0.196,0.866 -0.572,1.52 -1.128,1.962s-1.301,0.663 -2.235,0.663c-1.062,0 -1.908,-0.335 -2.54,-1.005s-0.947,-1.597 -0.947,-2.782c0,-1.199 0.317,-2.132 0.95,-2.799s1.49,-1.001 2.57,-1.001c0.884,0 1.587,0.19 2.109,0.571s0.896,0.959 1.124,1.738z"/>
     <path id="svg_111" stroke="null" d="m494.47121,292.507l2.481,-10.363l1.442,0l-2.509,10.363l-1.414,0z"/>
     <path id="svg_112" stroke="null" d="m499.45421,292.336l0,-9.939l2.023,0l0,8.251l5.031,0l0,1.688l-7.054,0z"/>
     <path id="svg_113" stroke="null" d="m507.49321,288.604c0,-0.638 0.157,-1.255 0.472,-1.853s0.76,-1.053 1.337,-1.367c0.576,-0.314 1.22,-0.472 1.931,-0.472c1.099,0 1.999,0.356 2.7,1.07s1.053,1.614 1.053,2.704c0,1.098 -0.354,2.009 -1.063,2.731c-0.709,0.722 -1.602,1.083 -2.677,1.083c-0.665,0 -1.3,-0.15 -1.903,-0.451c-0.604,-0.301 -1.063,-0.742 -1.378,-1.323s-0.472,-1.288 -0.472,-2.122zm1.969,0.103c0,0.72 0.171,1.271 0.513,1.654s0.763,0.574 1.265,0.574s0.922,-0.191 1.262,-0.574c0.339,-0.383 0.509,-0.939 0.509,-1.668c0,-0.711 -0.17,-1.258 -0.509,-1.641c-0.34,-0.383 -0.76,-0.574 -1.262,-0.574s-0.923,0.191 -1.265,0.574s-0.513,0.934 -0.513,1.655z"/>
     <path id="svg_114" stroke="null" d="m516.31121,292.815l2.194,0.267c0.036,0.255 0.12,0.431 0.253,0.526c0.182,0.137 0.469,0.205 0.861,0.205c0.502,0 0.877,-0.075 1.128,-0.226c0.169,-0.1 0.296,-0.262 0.383,-0.485c0.06,-0.16 0.089,-0.454 0.089,-0.882l0,-1.06c-0.574,0.784 -1.299,1.176 -2.174,1.176c-0.975,0 -1.748,-0.413 -2.317,-1.237c-0.446,-0.652 -0.67,-1.463 -0.67,-2.434c0,-1.217 0.293,-2.146 0.878,-2.789c0.586,-0.643 1.314,-0.964 2.185,-0.964c0.897,0 1.638,0.394 2.222,1.183l0,-1.019l1.798,0l0,6.515c0,0.857 -0.071,1.497 -0.212,1.921s-0.34,0.756 -0.595,0.998s-0.596,0.431 -1.022,0.567c-0.426,0.137 -0.965,0.205 -1.616,0.205c-1.23,0 -2.103,-0.211 -2.618,-0.632s-0.772,-0.956 -0.772,-1.603c-0.001,-0.064 0.001,-0.141 0.005,-0.232zm1.716,-4.259c0,0.77 0.149,1.334 0.448,1.692c0.298,0.358 0.666,0.537 1.104,0.537c0.469,0 0.865,-0.184 1.189,-0.55s0.485,-0.91 0.485,-1.63c0,-0.752 -0.155,-1.31 -0.465,-1.675s-0.702,-0.547 -1.176,-0.547c-0.46,0 -0.84,0.179 -1.138,0.537c-0.297,0.357 -0.447,0.902 -0.447,1.636z"/>
     <path id="svg_115" stroke="null" d="m525.04121,284.092l0,-1.777l1.921,0l0,1.777l-1.921,0zm0,8.244l0,-7.26l1.921,0l0,7.26l-1.921,0z"/>
     <path id="svg_116" stroke="null" d="m535.26121,287.223l-1.894,0.342c-0.063,-0.378 -0.208,-0.663 -0.435,-0.854c-0.225,-0.191 -0.518,-0.287 -0.878,-0.287c-0.479,0 -0.86,0.165 -1.146,0.496c-0.284,0.331 -0.427,0.883 -0.427,1.658c0,0.861 0.145,1.47 0.435,1.825c0.289,0.355 0.678,0.533 1.165,0.533c0.364,0 0.663,-0.104 0.896,-0.311s0.396,-0.564 0.492,-1.07l1.887,0.321c-0.195,0.866 -0.572,1.52 -1.128,1.962s-1.302,0.663 -2.235,0.663c-1.063,0 -1.908,-0.335 -2.539,-1.005c-0.632,-0.67 -0.947,-1.597 -0.947,-2.782c0,-1.199 0.316,-2.132 0.95,-2.799s1.49,-1.001 2.57,-1.001c0.884,0 1.587,0.19 2.108,0.571c0.523,0.379 0.897,0.959 1.126,1.738z"/>
     <path id="svg_117" stroke="null" d="m540.60621,282.315l2.023,0l0,5.428c0,0.861 0.025,1.419 0.075,1.675c0.087,0.41 0.293,0.739 0.618,0.988c0.326,0.249 0.771,0.373 1.337,0.373c0.574,0 1.007,-0.117 1.299,-0.352s0.468,-0.523 0.526,-0.865s0.089,-0.909 0.089,-1.702l0,-5.544l2.023,0l0,5.264c0,1.203 -0.055,2.053 -0.164,2.55s-0.312,0.916 -0.604,1.258c-0.295,0.342 -0.688,0.614 -1.18,0.817s-1.135,0.304 -1.928,0.304c-0.957,0 -1.683,-0.11 -2.178,-0.332c-0.494,-0.221 -0.885,-0.508 -1.172,-0.861s-0.477,-0.724 -0.567,-1.111c-0.132,-0.574 -0.198,-1.422 -0.198,-2.543l0,-5.347l0.001,0z"/>
     <path id="svg_118" stroke="null" d="m557.32021,292.336l-1.921,0l0,-3.705c0,-0.784 -0.041,-1.291 -0.123,-1.521s-0.215,-0.409 -0.4,-0.537c-0.184,-0.127 -0.406,-0.191 -0.666,-0.191c-0.332,0 -0.631,0.091 -0.896,0.273s-0.445,0.424 -0.544,0.725c-0.098,0.301 -0.146,0.857 -0.146,1.668l0,3.288l-1.921,0l0,-7.26l1.784,0l0,1.066c0.633,-0.82 1.432,-1.23 2.393,-1.23c0.424,0 0.811,0.076 1.162,0.229s0.616,0.348 0.797,0.584c0.18,0.237 0.305,0.506 0.375,0.807c0.071,0.301 0.106,0.731 0.106,1.292l0,4.512z"/>
     <path id="svg_119" stroke="null" d="m559.26821,284.092l0,-1.777l1.921,0l0,1.777l-1.921,0zm0,8.244l0,-7.26l1.921,0l0,7.26l-1.921,0z"/>
     <path id="svg_120" stroke="null" d="m566.48721,285.077l0,1.531l-1.313,0l0,2.926c0,0.592 0.013,0.938 0.037,1.036c0.025,0.098 0.082,0.179 0.172,0.243c0.088,0.064 0.197,0.096 0.324,0.096c0.178,0 0.436,-0.062 0.772,-0.185l0.164,1.49c-0.446,0.191 -0.952,0.287 -1.518,0.287c-0.347,0 -0.659,-0.058 -0.937,-0.174s-0.482,-0.267 -0.611,-0.451c-0.131,-0.185 -0.221,-0.434 -0.271,-0.749c-0.041,-0.223 -0.062,-0.674 -0.062,-1.354l0,-3.165l-0.882,0l0,-1.531l0.882,0l0,-1.442l1.928,-1.121l0,2.563l1.315,0z"/>
    </g>
   </g>
  </g>
  <g stroke="null">
   <rect stroke="#000000" height="165" width="190" stroke-miterlimit="10" stroke-width="2" fill="#FFFFFF" y="161.5" x="597.07681"/>
   <text stroke="#000000" xml:space="preserve" text-anchor="start" font-family="Noto Sans JP" font-size="24" id="svg_125" y="254" x="674" stroke-width="0" fill="#000000"></text>
  </g>
  <rect stroke="#000000" height="45" width="572.00001" stroke-miterlimit="10" stroke-width="2" fill="#FFFFFF" y="378.5" x="200.99999"/>
  <g stroke="null">
   <path stroke="null" d="m403.598,405.336l0,-10.021l3.028,0l1.818,6.836l1.798,-6.836l3.035,0l0,10.021l-1.88,0l0,-7.889l-1.989,7.889l-1.948,0l-1.982,-7.889l0,7.889l-1.88,0z"/>
   <path stroke="null" d="m419.478,403.025l1.914,0.322c-0.246,0.701 -0.635,1.236 -1.166,1.603s-1.195,0.55 -1.993,0.55c-1.262,0 -2.197,-0.412 -2.803,-1.236c-0.479,-0.661 -0.718,-1.495 -0.718,-2.502c0,-1.203 0.314,-2.146 0.943,-2.827s1.424,-1.022 2.386,-1.022c1.08,0 1.932,0.357 2.557,1.07s0.923,1.806 0.896,3.277l-4.813,0c0.014,0.57 0.168,1.014 0.465,1.33s0.666,0.475 1.107,0.475c0.301,0 0.554,-0.082 0.759,-0.246s0.361,-0.428 0.466,-0.794zm0.109,-1.941c-0.014,-0.556 -0.157,-0.979 -0.431,-1.268s-0.606,-0.434 -0.998,-0.434c-0.419,0 -0.766,0.152 -1.039,0.457c-0.273,0.306 -0.408,0.721 -0.403,1.244l2.871,0l0,0.001z"/>
   <path stroke="null" d="m422.917,398.076l1.771,0l0,0.992c0.633,-0.771 1.388,-1.156 2.263,-1.156c0.465,0 0.868,0.096 1.21,0.287s0.622,0.481 0.841,0.869c0.319,-0.388 0.663,-0.678 1.032,-0.869s0.763,-0.287 1.183,-0.287c0.533,0 0.984,0.109 1.354,0.325s0.645,0.534 0.827,0.954c0.132,0.31 0.198,0.811 0.198,1.504l0,4.641l-1.921,0l0,-4.148c0,-0.721 -0.066,-1.186 -0.198,-1.395c-0.178,-0.273 -0.451,-0.41 -0.82,-0.41c-0.269,0 -0.522,0.082 -0.759,0.246s-0.408,0.404 -0.513,0.721s-0.157,0.816 -0.157,1.5l0,3.486l-1.921,0l0,-3.979c0,-0.706 -0.034,-1.162 -0.103,-1.367s-0.174,-0.357 -0.318,-0.457c-0.144,-0.101 -0.338,-0.15 -0.584,-0.15c-0.296,0 -0.563,0.079 -0.8,0.238c-0.237,0.16 -0.407,0.391 -0.509,0.691s-0.154,0.799 -0.154,1.496l0,3.527l-1.921,0l0,-7.259l-0.001,0z"/>
   <path stroke="null" d="m435.064,401.604c0,-0.638 0.157,-1.255 0.472,-1.852c0.314,-0.598 0.76,-1.053 1.336,-1.367s1.22,-0.473 1.931,-0.473c1.098,0 1.999,0.357 2.7,1.07s1.053,1.614 1.053,2.703c0,1.099 -0.354,2.01 -1.063,2.731s-1.601,1.083 -2.676,1.083c-0.666,0 -1.3,-0.15 -1.904,-0.451s-1.063,-0.741 -1.377,-1.322s-0.472,-1.288 -0.472,-2.122zm1.969,0.103c0,0.72 0.171,1.271 0.513,1.654s0.763,0.574 1.265,0.574s0.922,-0.191 1.261,-0.574s0.509,-0.939 0.509,-1.668c0,-0.711 -0.17,-1.258 -0.509,-1.641s-0.76,-0.574 -1.261,-0.574s-0.923,0.191 -1.265,0.574s-0.513,0.934 -0.513,1.655z"/>
   <path stroke="null" d="m445.898,405.336l-1.92,0l0,-7.26l1.784,0l0,1.033c0.306,-0.488 0.58,-0.81 0.824,-0.965c0.244,-0.154 0.521,-0.232 0.83,-0.232c0.438,0 0.859,0.121 1.266,0.363l-0.596,1.674c-0.323,-0.209 -0.624,-0.314 -0.902,-0.314c-0.269,0 -0.496,0.074 -0.684,0.223c-0.187,0.148 -0.334,0.416 -0.44,0.803c-0.106,0.388 -0.161,1.199 -0.161,2.434l0,2.241l-0.001,0z"/>
   <path stroke="null" d="m448.6,398.076l2.043,0l1.736,5.154l1.695,-5.154l1.99,0l-2.564,6.986l-0.457,1.266c-0.169,0.424 -0.33,0.747 -0.482,0.971c-0.152,0.223 -0.328,0.404 -0.526,0.543s-0.442,0.247 -0.731,0.324c-0.289,0.078 -0.616,0.117 -0.98,0.117c-0.369,0 -0.732,-0.039 -1.088,-0.117l-0.17,-1.504c0.301,0.06 0.571,0.09 0.813,0.09c0.447,0 0.777,-0.131 0.992,-0.394c0.214,-0.263 0.378,-0.596 0.492,-1.001l-2.763,-7.281z"/>
   <path stroke="null" d="m461.184,395.314l2.023,0l0,5.428c0,0.861 0.025,1.42 0.076,1.676c0.086,0.41 0.293,0.738 0.618,0.987s0.771,0.372 1.337,0.372c0.574,0 1.007,-0.117 1.299,-0.352c0.291,-0.234 0.467,-0.523 0.525,-0.865c0.06,-0.342 0.09,-0.908 0.09,-1.701l0,-5.545l2.023,0l0,5.264c0,1.203 -0.055,2.054 -0.164,2.551c-0.109,0.496 -0.312,0.916 -0.605,1.258s-0.688,0.613 -1.18,0.816s-1.135,0.305 -1.928,0.305c-0.957,0 -1.682,-0.111 -2.177,-0.332s-0.886,-0.508 -1.173,-0.861s-0.476,-0.724 -0.566,-1.111c-0.133,-0.574 -0.199,-1.422 -0.199,-2.543l0,-5.347l0.001,0z"/>
   <path stroke="null" d="m477.898,405.336l-1.922,0l0,-3.705c0,-0.783 -0.041,-1.291 -0.123,-1.521s-0.215,-0.409 -0.399,-0.536c-0.185,-0.128 -0.407,-0.191 -0.667,-0.191c-0.332,0 -0.631,0.091 -0.895,0.273c-0.265,0.182 -0.445,0.424 -0.544,0.725s-0.147,0.856 -0.147,1.668l0,3.287l-1.92,0l0,-7.26l1.783,0l0,1.066c0.634,-0.82 1.432,-1.23 2.393,-1.23c0.424,0 0.812,0.076 1.162,0.229c0.352,0.153 0.617,0.348 0.797,0.585c0.18,0.236 0.305,0.506 0.376,0.807s0.106,0.73 0.106,1.291l0,4.512z"/>
   <path stroke="null" d="m479.846,397.092l0,-1.777l1.922,0l0,1.777l-1.922,0zm0,8.244l0,-7.26l1.922,0l0,7.26l-1.922,0z"/>
   <path stroke="null" d="m487.064,398.076l0,1.531l-1.313,0l0,2.926c0,0.593 0.014,0.938 0.038,1.036s0.082,0.179 0.171,0.243c0.089,0.063 0.197,0.096 0.324,0.096c0.178,0 0.436,-0.063 0.773,-0.186l0.164,1.49c-0.447,0.191 -0.953,0.287 -1.518,0.287c-0.347,0 -0.659,-0.058 -0.938,-0.174c-0.277,-0.116 -0.481,-0.267 -0.611,-0.451s-0.22,-0.434 -0.27,-0.748c-0.041,-0.224 -0.063,-0.675 -0.063,-1.354l0,-3.166l-0.881,0l0,-1.531l0.881,0l0,-1.441l1.928,-1.121l0,2.563l1.315,0z"/>
  </g>
  <g id="svg_147" stroke="null">
   <g id="svg_143" stroke="null">
    <line id="svg_141" stroke="#000000" y2="369.5" x2="483.0408" y1="327.5" x1="483.0408" stroke-miterlimit="10" stroke-width="2" fill="none"/>
    <polygon id="svg_142" stroke="#000000" points="483.0408020019531,375.5 478.0408020019531,369.5 483.0408020019531,369.5 488.0408020019531,369.5 " stroke-miterlimit="10" stroke-width="2"/>
   </g>
   <g id="svg_146" stroke="null">
    <line id="svg_144" stroke="#000000" y2="335.5" x2="505.0408" y1="377.5" x1="505.0408" stroke-miterlimit="10" stroke-width="2" fill="none"/>
    <polygon id="svg_145" stroke="#000000" points="505.0387878417969,329.5 510.039794921875,335.5 505.0387878417969,335.5 500.0387878417969,335.5 " stroke-miterlimit="10" stroke-width="2"/>
   </g>
  </g>
  <g id="svg_132" stroke="null">
   <g id="svg_128" stroke="null">
    <line id="svg_126" stroke="#000000" y2="369.5" x2="281.9704" y1="327.5" x1="281.9704" stroke-miterlimit="10" stroke-width="2" fill="none"/>
    <polygon id="svg_127" stroke="#000000" points="281.97039794921875,375.5 276.97039794921875,369.5 281.97039794921875,369.5 286.97039794921875,369.5 " stroke-miterlimit="10" stroke-width="2"/>
   </g>
   <g id="svg_131" stroke="null">
    <line id="svg_129" stroke="#000000" y2="335.5" x2="303.9704" y1="377.5" x1="303.9704" stroke-miterlimit="10" stroke-width="2" fill="none"/>
    <polygon id="svg_130" stroke="#000000" points="303.9683837890625,329.5 308.9693908691406,335.5 303.9683837890625,335.5 298.9683837890625,335.5 " stroke-miterlimit="10" stroke-width="2"/>
   </g>
  </g>
  <g stroke="null">
   <g stroke="null">
    <line stroke="#000000" y2="369.5" x2="681.01036" y1="327.5" x1="681.01036" stroke-miterlimit="10" stroke-width="2" fill="none"/>
    <polygon stroke="#000000" points="681.0103759765625,375.5 676.0103759765625,369.5 681.0103759765625,369.5 686.0103759765625,369.5 " stroke-miterlimit="10" stroke-width="2"/>
   </g>
   <g stroke="null">
    <line stroke="#000000" y2="335.5" x2="703.01036" y1="377.5" x1="703.01036" stroke-miterlimit="10" stroke-width="2" fill="none"/>
    <polygon stroke="#000000" points="703.0083618164062,329.5 708.0093383789062,335.5 703.0083618164062,335.5 698.0083618164062,335.5 " stroke-miterlimit="10" stroke-width="2"/>
   </g>
  </g>
  <g>
   <g>
    <line y2="291.5" x2="166.74548" y1="291.5" x1="116.74548" stroke-miterlimit="10" stroke-width="2" stroke="#000000" fill="none"/>
    <polygon points="172.7454833984375,291.5 166.7454833984375,296.5 166.7454833984375,291.5 166.7454833984375,286.5 " stroke-miterlimit="10" stroke-width="2" stroke="#000000"/>
   </g>
   <g>
    <g>
     <path d="m58.34948,286.836l0,-10.021l2.023,0l0,10.021l-2.023,0z"/>
     <path d="m68.89048,286.836l-1.921,0l0,-3.705c0,-0.784 -0.041,-1.291 -0.123,-1.521s-0.215,-0.409 -0.4,-0.537s-0.407,-0.191 -0.667,-0.191c-0.333,0 -0.631,0.091 -0.896,0.273s-0.445,0.424 -0.543,0.725s-0.147,0.857 -0.147,1.668l0,3.288l-1.921,0l0,-7.26l1.784,0l0,1.066c0.633,-0.82 1.431,-1.23 2.393,-1.23c0.424,0 0.811,0.076 1.162,0.229s0.616,0.348 0.796,0.584s0.305,0.506 0.376,0.807s0.106,0.731 0.106,1.292l0,4.512l0.001,0z"/>
     <path d="m70.78348,279.577l1.791,0l0,1.066c0.232,-0.365 0.547,-0.661 0.943,-0.889s0.836,-0.342 1.319,-0.342c0.843,0 1.559,0.331 2.146,0.991s0.882,1.582 0.882,2.762c0,1.212 -0.296,2.154 -0.889,2.827s-1.309,1.008 -2.152,1.008c-0.401,0 -0.765,-0.08 -1.09,-0.239s-0.669,-0.433 -1.029,-0.82l0,3.657l-1.921,0l0,-10.021zm1.9,3.506c0,0.816 0.162,1.418 0.485,1.808s0.718,0.584 1.183,0.584c0.447,0 0.818,-0.179 1.114,-0.537s0.444,-0.944 0.444,-1.76c0,-0.761 -0.153,-1.326 -0.458,-1.695s-0.684,-0.554 -1.135,-0.554c-0.469,0 -0.859,0.181 -1.169,0.543s-0.464,0.901 -0.464,1.611z"/>
     <path d="m84.16848,286.836l0,-1.087c-0.264,0.387 -0.612,0.693 -1.042,0.916s-0.886,0.335 -1.364,0.335c-0.488,0 -0.925,-0.107 -1.313,-0.321s-0.667,-0.515 -0.841,-0.902s-0.26,-0.923 -0.26,-1.606l0,-4.594l1.921,0l0,3.336c0,1.021 0.035,1.646 0.106,1.876s0.199,0.413 0.386,0.547s0.424,0.202 0.711,0.202c0.328,0 0.622,-0.09 0.882,-0.27s0.438,-0.403 0.533,-0.67s0.144,-0.919 0.144,-1.958l0,-3.063l1.921,0l0,7.26l-1.784,0l0,-0.001z"/>
     <path d="m91.27048,279.577l0,1.531l-1.313,0l0,2.926c0,0.592 0.013,0.938 0.038,1.036s0.082,0.179 0.171,0.243s0.197,0.096 0.325,0.096c0.178,0 0.435,-0.062 0.772,-0.185l0.164,1.49c-0.446,0.191 -0.952,0.286 -1.517,0.286c-0.346,0 -0.659,-0.058 -0.937,-0.174s-0.482,-0.267 -0.612,-0.451s-0.22,-0.434 -0.27,-0.749c-0.041,-0.223 -0.062,-0.674 -0.062,-1.354l0,-3.165l-0.882,0l0,-1.531l0.882,0l0,-1.442l1.928,-1.121l0,2.563l1.313,0l0,0.001z"/>
     <path d="m52.93448,293.615l3.698,0c0.834,0 1.47,0.064 1.907,0.191c0.588,0.173 1.091,0.481 1.511,0.923s0.738,0.983 0.957,1.624s0.328,1.43 0.328,2.369c0,0.825 -0.103,1.536 -0.308,2.133c-0.25,0.729 -0.608,1.319 -1.073,1.771c-0.351,0.342 -0.825,0.608 -1.422,0.8c-0.447,0.141 -1.043,0.212 -1.791,0.212l-3.808,0l0,-10.023l0.001,0zm2.024,1.695l0,6.638l1.511,0c0.565,0 0.973,-0.032 1.224,-0.096c0.328,-0.082 0.601,-0.221 0.817,-0.417s0.393,-0.519 0.53,-0.967s0.205,-1.061 0.205,-1.835s-0.068,-1.37 -0.205,-1.784s-0.328,-0.738 -0.574,-0.971s-0.558,-0.39 -0.937,-0.472c-0.283,-0.064 -0.836,-0.096 -1.661,-0.096l-0.91,0z"/>
     <path d="m67.24248,301.326l1.914,0.321c-0.246,0.702 -0.635,1.236 -1.166,1.603s-1.195,0.55 -1.993,0.55c-1.262,0 -2.197,-0.413 -2.803,-1.237c-0.479,-0.661 -0.718,-1.495 -0.718,-2.502c0,-1.203 0.314,-2.146 0.943,-2.827s1.424,-1.022 2.386,-1.022c1.08,0 1.932,0.356 2.557,1.07s0.923,1.806 0.896,3.278l-4.813,0c0.014,0.57 0.168,1.013 0.465,1.33s0.666,0.475 1.107,0.475c0.301,0 0.554,-0.082 0.759,-0.246s0.361,-0.429 0.466,-0.793zm0.109,-1.942c-0.014,-0.556 -0.157,-0.979 -0.431,-1.268s-0.606,-0.434 -0.998,-0.434c-0.419,0 -0.766,0.153 -1.039,0.458s-0.408,0.72 -0.403,1.244l2.871,0z"/>
     <path d="m72.82048,303.636l-2.926,-7.26l2.017,0l1.367,3.705l0.396,1.237c0.105,-0.314 0.171,-0.522 0.198,-0.622c0.064,-0.205 0.132,-0.41 0.205,-0.615l1.381,-3.705l1.976,0l-2.885,7.26l-1.729,0z"/>
     <path d="m78.61048,295.392l0,-1.777l1.921,0l0,1.777l-1.921,0zm0,8.244l0,-7.26l1.921,0l0,7.26l-1.921,0z"/>
     <path d="m88.83048,298.523l-1.894,0.342c-0.064,-0.378 -0.208,-0.663 -0.434,-0.854s-0.519,-0.287 -0.878,-0.287c-0.479,0 -0.86,0.165 -1.145,0.496s-0.427,0.883 -0.427,1.658c0,0.861 0.145,1.47 0.434,1.825s0.678,0.533 1.166,0.533c0.365,0 0.663,-0.104 0.896,-0.311s0.396,-0.564 0.492,-1.07l1.887,0.321c-0.196,0.866 -0.572,1.52 -1.128,1.962s-1.301,0.663 -2.235,0.663c-1.062,0 -1.908,-0.335 -2.54,-1.005s-0.947,-1.597 -0.947,-2.782c0,-1.199 0.317,-2.132 0.95,-2.799s1.49,-1.001 2.57,-1.001c0.884,0 1.587,0.19 2.109,0.571s0.896,0.959 1.124,1.738z"/>
     <path d="m94.49048,301.326l1.914,0.321c-0.246,0.702 -0.635,1.236 -1.166,1.603s-1.195,0.55 -1.993,0.55c-1.262,0 -2.197,-0.413 -2.803,-1.237c-0.479,-0.661 -0.718,-1.495 -0.718,-2.502c0,-1.203 0.314,-2.146 0.943,-2.827s1.424,-1.022 2.386,-1.022c1.08,0 1.932,0.356 2.557,1.07s0.923,1.806 0.896,3.278l-4.813,0c0.014,0.57 0.168,1.013 0.465,1.33s0.666,0.475 1.107,0.475c0.301,0 0.554,-0.082 0.759,-0.246s0.361,-0.429 0.466,-0.793zm0.109,-1.942c-0.014,-0.556 -0.157,-0.979 -0.431,-1.268s-0.606,-0.434 -0.998,-0.434c-0.419,0 -0.766,0.153 -1.039,0.458s-0.408,0.72 -0.403,1.244l2.871,0z"/>
    </g>
    <rect height="65" width="85" stroke-miterlimit="10" stroke-width="2" stroke="#000000" fill="none" y="259.5" x="31.74548"/>
   </g>
  </g>
  <g>
   <g>
    <line y2="290.5" x2="859.09945" y1="290.5" x1="809.09945" stroke-miterlimit="10" stroke-width="2" stroke="#000000" fill="none"/>
    <polygon points="865.0994873046875,290.5 859.0994873046875,295.5 859.0994873046875,290.5 859.0994873046875,285.5 " stroke-miterlimit="10" stroke-width="2" stroke="#000000"/>
   </g>
   <g>
    <path d="m888.02345,280.887c0,-1.021 0.152,-1.877 0.458,-2.57c0.228,-0.51 0.539,-0.968 0.933,-1.374c0.395,-0.406 0.826,-0.707 1.296,-0.902c0.624,-0.264 1.345,-0.396 2.16,-0.396c1.477,0 2.658,0.458 3.544,1.374c0.887,0.916 1.33,2.19 1.33,3.821c0,1.618 -0.439,2.884 -1.319,3.797s-2.056,1.371 -3.527,1.371c-1.49,0 -2.675,-0.455 -3.555,-1.364s-1.32,-2.162 -1.32,-3.757zm2.085,-0.068c0,1.135 0.263,1.995 0.786,2.581s1.189,0.878 1.996,0.878s1.469,-0.291 1.986,-0.872c0.517,-0.581 0.775,-1.453 0.775,-2.615c0,-1.148 -0.252,-2.005 -0.756,-2.57c-0.503,-0.565 -1.172,-0.848 -2.006,-0.848s-1.506,0.286 -2.017,0.858s-0.764,1.435 -0.764,2.588z"/>
    <path d="m904.08745,285.836l0,-1.087c-0.264,0.387 -0.611,0.693 -1.043,0.916c-0.43,0.223 -0.885,0.335 -1.363,0.335c-0.488,0 -0.926,-0.107 -1.313,-0.321s-0.668,-0.515 -0.841,-0.902s-0.26,-0.923 -0.26,-1.606l0,-4.594l1.921,0l0,3.336c0,1.021 0.035,1.646 0.105,1.876c0.071,0.23 0.199,0.413 0.387,0.547s0.424,0.202 0.711,0.202c0.328,0 0.622,-0.09 0.882,-0.27s0.438,-0.403 0.533,-0.67s0.144,-0.919 0.144,-1.958l0,-3.063l1.921,0l0,7.26l-1.784,0l0,-0.001z"/>
    <path d="m911.19045,278.577l0,1.531l-1.313,0l0,2.926c0,0.592 0.013,0.938 0.038,1.036c0.024,0.098 0.082,0.179 0.17,0.243c0.09,0.064 0.197,0.096 0.325,0.096c0.178,0 0.435,-0.062 0.772,-0.185l0.164,1.49c-0.447,0.191 -0.953,0.287 -1.518,0.287c-0.346,0 -0.658,-0.058 -0.937,-0.174s-0.481,-0.267 -0.612,-0.451c-0.129,-0.185 -0.219,-0.434 -0.27,-0.749c-0.041,-0.223 -0.062,-0.674 -0.062,-1.354l0,-3.165l-0.882,0l0,-1.531l0.882,0l0,-1.442l1.928,-1.121l0,2.563l1.315,0z"/>
    <path d="m912.46845,278.577l1.791,0l0,1.066c0.232,-0.365 0.547,-0.661 0.943,-0.889s0.836,-0.342 1.319,-0.342c0.843,0 1.559,0.331 2.146,0.991s0.882,1.582 0.882,2.762c0,1.212 -0.297,2.154 -0.889,2.827s-1.309,1.008 -2.152,1.008c-0.401,0 -0.765,-0.08 -1.091,-0.239c-0.325,-0.16 -0.668,-0.433 -1.028,-0.82l0,3.657l-1.921,0l0,-10.021zm1.901,3.506c0,0.816 0.162,1.418 0.485,1.808s0.718,0.584 1.183,0.584c0.447,0 0.818,-0.179 1.114,-0.537s0.444,-0.944 0.444,-1.76c0,-0.761 -0.152,-1.326 -0.458,-1.695s-0.684,-0.554 -1.135,-0.554c-0.47,0 -0.858,0.181 -1.169,0.543s-0.464,0.901 -0.464,1.611z"/>
    <path d="m925.85345,285.836l0,-1.087c-0.264,0.387 -0.611,0.693 -1.043,0.916c-0.43,0.223 -0.885,0.335 -1.363,0.335c-0.488,0 -0.926,-0.107 -1.313,-0.321s-0.668,-0.515 -0.841,-0.902s-0.26,-0.923 -0.26,-1.606l0,-4.594l1.921,0l0,3.336c0,1.021 0.035,1.646 0.105,1.876c0.071,0.23 0.199,0.413 0.387,0.547s0.424,0.202 0.711,0.202c0.328,0 0.622,-0.09 0.882,-0.27s0.438,-0.403 0.533,-0.67s0.144,-0.919 0.144,-1.958l0,-3.063l1.921,0l0,7.26l-1.784,0l0,-0.001z"/>
    <path d="m932.95545,278.577l0,1.531l-1.313,0l0,2.926c0,0.592 0.013,0.938 0.038,1.036c0.024,0.098 0.082,0.179 0.17,0.243c0.09,0.064 0.197,0.096 0.325,0.096c0.178,0 0.435,-0.062 0.772,-0.185l0.164,1.49c-0.447,0.191 -0.953,0.287 -1.518,0.287c-0.346,0 -0.658,-0.058 -0.937,-0.174s-0.481,-0.267 -0.612,-0.451c-0.129,-0.185 -0.219,-0.434 -0.27,-0.749c-0.041,-0.223 -0.062,-0.674 -0.062,-1.354l0,-3.165l-0.882,0l0,-1.531l0.882,0l0,-1.442l1.928,-1.121l0,2.563l1.315,0z"/>
    <path d="m888.78845,292.615l3.698,0c0.834,0 1.47,0.064 1.907,0.191c0.588,0.173 1.092,0.481 1.511,0.923s0.738,0.983 0.957,1.624s0.328,1.43 0.328,2.369c0,0.825 -0.103,1.536 -0.308,2.133c-0.25,0.729 -0.608,1.319 -1.073,1.771c-0.351,0.342 -0.825,0.608 -1.422,0.8c-0.446,0.141 -1.044,0.212 -1.791,0.212l-3.808,0l0,-10.023l0.001,0zm2.024,1.695l0,6.638l1.511,0c0.565,0 0.974,-0.032 1.224,-0.096c0.328,-0.082 0.601,-0.221 0.816,-0.417c0.217,-0.196 0.394,-0.519 0.53,-0.967s0.205,-1.061 0.205,-1.835s-0.068,-1.37 -0.205,-1.784s-0.328,-0.738 -0.574,-0.971s-0.558,-0.39 -0.937,-0.472c-0.283,-0.064 -0.836,-0.096 -1.661,-0.096l-0.909,0z"/>
    <path d="m903.09645,300.326l1.914,0.321c-0.246,0.702 -0.635,1.236 -1.165,1.603c-0.531,0.367 -1.195,0.55 -1.993,0.55c-1.263,0 -2.196,-0.413 -2.803,-1.237c-0.479,-0.661 -0.718,-1.495 -0.718,-2.502c0,-1.203 0.314,-2.146 0.943,-2.827s1.424,-1.022 2.386,-1.022c1.08,0 1.933,0.356 2.557,1.07s0.923,1.806 0.896,3.278l-4.813,0c0.014,0.57 0.168,1.013 0.465,1.33s0.666,0.475 1.107,0.475c0.301,0 0.554,-0.082 0.759,-0.246s0.361,-0.429 0.465,-0.793zm0.109,-1.942c-0.014,-0.556 -0.157,-0.979 -0.431,-1.268s-0.605,-0.434 -0.998,-0.434c-0.42,0 -0.766,0.153 -1.039,0.458s-0.408,0.72 -0.403,1.244l2.871,0z"/>
    <path d="m908.67445,302.636l-2.926,-7.26l2.017,0l1.367,3.705l0.396,1.237c0.105,-0.314 0.171,-0.522 0.198,-0.622c0.063,-0.205 0.132,-0.41 0.205,-0.615l1.381,-3.705l1.976,0l-2.885,7.26l-1.729,0z"/>
    <path d="m914.46445,294.392l0,-1.777l1.921,0l0,1.777l-1.921,0zm0,8.244l0,-7.26l1.921,0l0,7.26l-1.921,0z"/>
    <path d="m924.68445,297.523l-1.894,0.342c-0.064,-0.378 -0.209,-0.663 -0.434,-0.854c-0.227,-0.191 -0.52,-0.287 -0.879,-0.287c-0.479,0 -0.86,0.165 -1.145,0.496c-0.285,0.331 -0.428,0.883 -0.428,1.658c0,0.861 0.145,1.47 0.434,1.825c0.29,0.355 0.678,0.533 1.166,0.533c0.365,0 0.663,-0.104 0.896,-0.311s0.396,-0.564 0.492,-1.07l1.887,0.321c-0.196,0.866 -0.571,1.52 -1.128,1.962s-1.301,0.663 -2.235,0.663c-1.062,0 -1.908,-0.335 -2.54,-1.005c-0.631,-0.67 -0.946,-1.597 -0.946,-2.782c0,-1.199 0.317,-2.132 0.95,-2.799s1.49,-1.001 2.57,-1.001c0.885,0 1.587,0.19 2.109,0.571c0.522,0.379 0.897,0.959 1.125,1.738z"/>
    <path d="m930.34445,300.326l1.914,0.321c-0.246,0.702 -0.635,1.236 -1.165,1.603c-0.531,0.367 -1.195,0.55 -1.993,0.55c-1.263,0 -2.196,-0.413 -2.803,-1.237c-0.479,-0.661 -0.718,-1.495 -0.718,-2.502c0,-1.203 0.314,-2.146 0.943,-2.827s1.424,-1.022 2.386,-1.022c1.08,0 1.933,0.356 2.557,1.07s0.923,1.806 0.896,3.278l-4.813,0c0.014,0.57 0.168,1.013 0.465,1.33s0.666,0.475 1.107,0.475c0.301,0 0.554,-0.082 0.759,-0.246s0.361,-0.429 0.465,-0.793zm0.109,-1.942c-0.014,-0.556 -0.157,-0.979 -0.431,-1.268s-0.605,-0.434 -0.998,-0.434c-0.42,0 -0.766,0.153 -1.039,0.458s-0.408,0.72 -0.403,1.244l2.871,0z"/>
   </g>
   <rect height="65" width="85" stroke-miterlimit="10" stroke-width="2" stroke="#000000" fill="none" y="258.5" x="868.09945"/>
  </g>
 </g>
</svg>